<?xml version="1.0" standalone="no"?>
<!DOCTYPE svg PUBLIC "-//W3C//DTD SVG 1.1//EN" "http://www.w3.org/Graphics/SVG/1.1/DTD/svg11.dtd" >
<svg xmlns="http://www.w3.org/2000/svg">
<metadata></metadata>
<defs>
<font id="webfontregular" horiz-adv-x="2047" >
<font-face units-per-em="2048" ascent="1638" descent="-410" />
<missing-glyph horiz-adv-x="1024" />
<glyph horiz-adv-x="2048" />
<glyph horiz-adv-x="2048" />
<glyph unicode="&#xd;" horiz-adv-x="1024" />
<glyph horiz-adv-x="1121" />
<glyph horiz-adv-x="879" />
<glyph unicode=" "  horiz-adv-x="1024" />
<glyph unicode="&#x09;" horiz-adv-x="1024" />
<glyph unicode="&#xa0;" horiz-adv-x="1024" />
<glyph unicode="!" horiz-adv-x="1073" d="M88 1057q0 56 21 103.5t57 64.5q0 -17 26 -29t46 -12h729q29 0 49.5 -23t20.5 -53v-127q0 -22 -23 -41.5t-47 -19.5v-1447h-113l-2 1447h-725q-39 45 -39 137zM256 527v131h396v-131h-134v-199h-131v199h-131z" />
<glyph unicode="&#x22;" horiz-adv-x="2" d="M183 -309q0 45 31 75.5t77 30.5q44 0 75.5 -30.5t31.5 -75.5q0 -43 -32 -76t-75 -33q-45 0 -76.5 31.5t-31.5 77.5zM486 -309q0 45 32 75.5t78 30.5q44 0 74.5 -30.5t30.5 -75.5q0 -46 -30.5 -77.5t-74.5 -31.5q-46 0 -78 33t-32 76z" />
<glyph unicode="#" horiz-adv-x="1174" d="M74 953q0 35 7 73q6 41 19 89l15 69q3 26 23.5 39.5t46.5 13.5q0 -53 32 -53l168 -119q6 -21 6 -53q0 -74 -31.5 -163t-66.5 -111l-49 69l-49 -49q-37 -75 -37 -203q0 -19 1 -45t4 -55l7 -80l84 -82h4l82 82q65 74 120.5 170t84.5 199v86q-74 24 -74 137q0 28 5 66l16 85 l12 66q0 27 30 45t60 18q0 -63 29 -63l174 -147q4 -18 6 -32.5t2 -31.5q0 -71 -28 -145.5t-70 -102.5l-47 64l-64 -74q-37 -112 -61.5 -171.5t-65.5 -125.5t-112 -135l-21 -31h289q92 33 165 99.5t124 156.5q24 43 43.5 92t33.5 101v47q-53 0 -86.5 53t-33.5 111v272 q0 63 84 63q0 -37 36 -67l117 -70v-321l-39 -41v-41q-5 -48 -13 -96t-18 -90q-18 -78 -60 -171q-24 -54 -49.5 -101t-66.5 -114l-43 -135h-682l-16 348q-16 111 -16 179q0 164 47 274l-17 29q-61 27 -61 123z" />
<glyph unicode="$" horiz-adv-x="1303" d="M66 953q0 43 18 130l21 101q0 24 23.5 38.5t47.5 14.5q0 -53 33 -53l168 -119q6 -21 6 -53q0 -74 -31.5 -163t-66.5 -111l-51 69l-47 -49q-20 -40 -31.5 -90.5t-11.5 -112.5q0 -35 51 -152q17 -38 51 -110h4q2 0 66 89q80 112 130 193q74 120 91 183v72q-74 23 -74 137 q0 48 16 128l17 89q0 28 30.5 45.5t59.5 17.5q0 -63 27 -63l176 -147q6 -27 6 -64q0 -72 -27.5 -146t-68.5 -102l-47 64l-39 -51q-29 -87 -102 -211q-51 -87 -124 -191q-59 -84 -61 -84h291q132 49 228 169q90 114 138 280v47q-53 0 -88 53t-35 111v272q0 63 86 63 q0 -24 8.5 -38t28.5 -29l117 -70v-321l-39 -41v-41q-5 -48 -13 -96t-17 -86t-25 -83t-35 -89q-15 -34 -63 -102q-64 -90 -81 -119l-16 -132h-682l-16 348q-10 52 -18 100q-11 69 -11 107q0 76 18 139q11 40 42 107l-17 29q-61 27 -61 123zM1014 1374q0 45 32 75t79 30 q41 0 72.5 -30t31.5 -75q0 -44 -32 -77t-72 -33q-45 0 -78 33t-33 77z" />
<glyph unicode="%" horiz-adv-x="1821" d="M80 1077q0 93 46.5 173.5t128 127t175.5 46.5q92 0 173 -46.5t128 -126.5t47 -174q0 -49 -11 -91t-36 -84q-46 -79 -126 -127t-175 -48q-93 0 -174 46.5t-128.5 128t-47.5 175.5zM223 1077q0 -62 28 -108t75.5 -72t101.5 -26q88 0 147.5 60.5t59.5 145.5 q0 86 -59.5 144.5t-145.5 58.5q-88 0 -147.5 -59t-59.5 -144zM449 -39l809 1479h112l-811 -1479h-110zM1043 336q0 96 47 175t127 125t176 46q93 0 173 -45t127.5 -126t47.5 -175q0 -49 -11 -91t-36 -84q-47 -82 -128 -129t-173 -47q-94 0 -175.5 47t-128 127.5t-46.5 176.5 zM1186 336q0 -90 60.5 -148.5t144.5 -58.5q89 0 148 60.5t59 146.5q0 85 -60.5 144t-144.5 59q-87 0 -147 -59.5t-60 -143.5z" />
<glyph unicode="&#x26;" horiz-adv-x="1174" d="M74 953q0 35 7 73q6 41 19 89l15 69q3 26 23.5 39.5t46.5 13.5q0 -53 32 -53l168 -119q6 -21 6 -53q0 -74 -31.5 -163t-66.5 -111l-49 69l-49 -49q-37 -75 -37 -203q0 -19 1 -45t4 -55l7 -80l84 -82h4l82 82q65 74 120.5 170t84.5 199v86q-74 24 -74 137q0 28 5 66l16 85 l12 66q0 27 30 45t60 18q0 -63 29 -63l174 -147q4 -18 6 -32.5t2 -31.5q0 -71 -28 -145.5t-70 -102.5l-47 64l-64 -74q-37 -112 -61.5 -171.5t-65.5 -125.5t-112 -135l-21 -31h289q92 33 165 99.5t124 156.5q24 43 43.5 92t33.5 101v47q-53 0 -86.5 53t-33.5 111v272 q0 63 84 63q0 -37 36 -67l117 -70v-321l-39 -41v-41q-5 -48 -13 -96t-18 -90q-18 -78 -60 -171q-24 -54 -49.5 -101t-66.5 -114l-43 -135h-682l-16 348q-16 111 -16 179q0 164 47 274l-17 29q-61 27 -61 123zM250 1354q0 45 31 74.5t78 29.5q43 0 74.5 -29t31.5 -75 q0 -45 -32 -78t-74 -33q-45 0 -77 33.5t-32 77.5z" />
<glyph unicode="'" horiz-adv-x="965" d="M197 795l143 184v41l82 82l80 162v164h80l43 43h39l119 80v-76l-123 -246z" />
<glyph unicode="(" horiz-adv-x="1008" d="M64 45q0 103 26 159t113 56l172 6q-18 52 -61 128.5t-62.5 125t-19.5 117.5l1 10l1 9l-6 221l-62 26l-59 54l2 227q0 11 15 27t32 16q0 -43 27 -43l151 -25l102 -36l-1 -18l-1 -23v-52q0 -174 -63 -174l-2 2l-72 15l-4 -209q0 -56 18.5 -103t62.5 -131q19 -37 38.5 -80 t30.5 -73l92 10q74 10 115.5 48t57.5 88.5t33 147.5t17 230v41q-27 0 -47 4t-41 16q-36 19 -76 80l39 244q0 16 22 30.5t40 14.5q0 -47 20 -47l219 -111q0 -72 -11 -123.5t-50 -95.5l-35 -65l-4 -49l-17 -138q-8 -63 -12 -93t-14 -84q-13 -86 -35.5 -171t-50.5 -137 q-26 -61 -129 -89t-246 -28l-53 1l-54 1h-157l-1 21z" />
<glyph unicode=")" horiz-adv-x="1157" d="M64 1014q0 39 31.5 84.5t87.5 75.5q15 10 47 10l-9 -20q0 -8 14 -22l13 -13l444 -447q0 58 70 197l33 59l-98 49l-66 50l4 143l35 53q0 12 17.5 24.5t31.5 12.5l-2 -9l-2 -9q0 -27 16 -27l103 -45l102 -70l66 -71l55 -58l-47 -180q0 -12 -12.5 -25.5t-24.5 -13.5v14 q0 31 -29 50l-100 75l-51 -123q-43 -102 -43 -149l2 -11l2 -9l39 -27l221 -223q61 -89 61 -148q0 -90 -131 -209l4 60q0 52 -43 102l-585 586l-54 -66l-28 -57q-19 -36 -19 -64q0 -41 41 -88l129 -213q25 -28 25 -84q0 -66 -34.5 -122t-86.5 -56h-223q143 86 143 168 q0 27 -26 92l-90 168q-17 32 -17 68q0 53 28 108q15 29 33 59.5t44 69.5l81 54l-83 84l-107 104q-12 20 -12 39z" />
<glyph unicode="*" horiz-adv-x="797" d="M80 1211l41 112l215 -78v226h123v-226l215 78l41 -112l-221 -70l137 -188l-100 -70l-133 192l-134 -192l-100 70l137 188z" />
<glyph unicode="+" horiz-adv-x="1137" d="M74 912v237q0 36 39 60t78 24l164 -84l10 -8q31 -37 31 -168q-11 -58 -26 -90q-14 -35 -30 -58l-26 -36q-52 0 -87.5 -53.5t-35.5 -110.5v-373h702q35 0 63.5 21t28.5 53v268q0 88 -36 162.5t-104.5 118t-158.5 43.5q-19 0 -38 -16.5t-39 -49.5q-36 -63 -57 -151.5 t-21 -159.5l-16 -17q-10 -9 -23 -10q-17 0 -41 27l2 78q0 50 9 107t28 124t43 125t55 110q59 99 117 99h18q101 0 178.5 -70.5t118.5 -174t41 -199.5v-607q0 -49 -21.5 -91t-70.5 -42h-815q-39 0 -39 207v414q0 38 3 65.5t11 53.5q15 49 68 49z" />
<glyph unicode="," horiz-adv-x="652" d="M19 -35l80 279l81 164h320l-406 -443h-75z" />
<glyph unicode="-" horiz-adv-x="879" d="M86 985l66 131h657l-65 -131h-658z" />
<glyph unicode="." horiz-adv-x="545" d="M43 258l215 215l209 -215l-209 -209zM43 881l215 215l209 -215l-209 -211z" />
<glyph unicode="/" horiz-adv-x="936" d="M37 105l772 1454l105 18l-807 -1558z" />
<glyph unicode="0" horiz-adv-x="1028" d="M45 613q0 124 29 238t85 197t140.5 131t194.5 48h24q70 0 129.5 -23t110.5 -68q100 -86 149.5 -214.5t49.5 -247.5v-102q0 -152 -58.5 -283.5t-157 -209t-208.5 -77.5h-39q-129 0 -231.5 75.5t-160 216.5t-57.5 319zM244 588q0 -152 24 -254t65 -161.5t89 -82t96 -22.5 q141 0 189.5 148.5t48.5 340.5v99q0 99 -20 215.5t-74.5 202t-151.5 85.5h-12q-31 0 -57 -8.5t-51 -23.5q-42 -27 -69.5 -85.5t-43.5 -147.5q-7 -38 -14.5 -99t-14.5 -139l-2 -36z" />
<glyph unicode="1" horiz-adv-x="824" d="M166 2v29l65 13q52 9 78 19q28 9 44 30.5t16 56.5v876q0 43 -45 43q-17 0 -73 -18l-85 -25v39l377 170v-1063l-2 -10l-2 -8q0 -53 34 -74.5t99 -32t78 -16.5v-29h-584z" />
<glyph unicode="2" horiz-adv-x="1028" d="M76 2v43l189 174q54 51 63 60q25 24 99.5 100.5t130.5 147.5q53 66 71 112q53 130 53 211q0 114 -77.5 177t-186.5 63q-105 0 -194.5 -59t-116.5 -166l-31 16q27 117 91 194.5t148 114.5t175 37q88 0 170.5 -39t133 -112t50.5 -164q0 -62 -27 -146q-33 -85 -199.5 -261.5 t-353.5 -344.5h492q92 0 154 111l47 -13l-109 -256h-772z" />
<glyph unicode="3" horiz-adv-x="936" d="M76 88q0 26 24.5 47t59.5 21q69 0 135 -57q77 -43 150 -43q66 0 129.5 34.5t101 90.5t37.5 122l-3 28l-3 28q-9 80 -48 131t-123 78q-44 13 -102.5 22.5t-124.5 9.5v27q132 57 199 104t94 100t27 128q-6 65 -70.5 114.5t-148.5 49.5q-74 0 -151 -44q-73 -41 -134 -135 l-35 29q23 79 85 138t147 90.5t172 31.5q77 0 143 -28.5t108 -85.5t42 -136v-10q0 -64 -37.5 -120.5t-120.5 -121.5q79 -44 134 -98q50 -50 76 -117t26 -157q0 -48 -18.5 -94.5t-51.5 -90.5q-62 -85 -187.5 -136t-293.5 -51q-68 0 -119 6t-85 36t-34 59z" />
<glyph unicode="4" horiz-adv-x="1082" d="M72 314v110l618 799h109v-799h203v-110h-203v-312h-170v312h-557zM152 424h477v602z" />
<glyph unicode="5" horiz-adv-x="936" d="M56 80q0 34 31 59t73 25q64 0 104 -43q60 -72 158 -72q68 0 135 39t108.5 110.5t41.5 168.5v29q-22 162 -170 252q-82 49 -180 77q-117 33 -250 33l219 465h381q60 0 90 7t51 36l17 -10l-97 -174h-424l-65 -146q164 -41 257.5 -73.5t163.5 -86.5t109 -145.5t39 -234.5 q0 -61 -16.5 -110t-49 -92t-71.5 -76t-85 -57t-92 -40.5t-95.5 -27t-92.5 -15.5t-86 -5h-73q-66 18 -98.5 47.5t-32.5 59.5z" />
<glyph unicode="6" horiz-adv-x="1028" d="M68 527l4 53q4 33 4 57q29 151 103.5 262.5t180.5 183.5q51 35 113 65t126 50q77 24 135 36q77 16 145 16l16 -31q-139 -39 -239 -80q-95 -38 -161.5 -90.5t-111 -128.5t-74.5 -193q157 58 281 58q156 0 256 -98q52 -51 81.5 -122t29.5 -159v-25q0 -79 -33 -154.5 t-90 -135.5t-126 -95t-140 -35h-35q-124 0 -229 59t-170.5 187t-65.5 320zM256 441q0 -81 33.5 -171.5t85.5 -148.5q97 -106 180 -106q60 0 105 45t70.5 119.5t25.5 154.5v57q0 36 -11.5 72t-31.5 73q-36 69 -97.5 111.5t-136.5 42.5q-83 0 -170 -53q-53 -73 -53 -196z" />
<glyph unicode="7" horiz-adv-x="1008" d="M49 959l127 270h752l-442 -1227h-121l393 1084h-492q-86 -21 -169 -142z" />
<glyph unicode="8" horiz-adv-x="936" d="M94 295q0 67 45 138.5t107 123t115 68.5l-67 45q-60 40 -97.5 76.5t-63.5 90.5t-26 126l3 16l3 17q0 72 59.5 131.5t152 93t185.5 33.5q82 0 154 -25.5t118 -81.5q26 -31 39 -63.5t13 -73.5q0 -194 -248 -299q17 -16 78 -63q31 -24 56.5 -45.5t46.5 -44.5 q41 -43 69.5 -111.5t28.5 -161.5q0 -94 -54.5 -162t-145 -103t-186.5 -35q-97 0 -186 34.5t-144 104.5t-55 171zM244 309q0 -65 39 -139q30 -62 85 -97.5t111 -35.5q57 0 116.5 30t96.5 77t37 98q0 13 -0.5 24t-3.5 19q-12 47 -36 87.5t-90.5 95t-192.5 118.5 q-64 -45 -113 -119.5t-49 -157.5zM260 1020q0 -80 68 -163t178 -119q35 11 78 43.5t77 88.5t34 126q0 82 -68.5 138t-159.5 56q-83 0 -123 -26q-84 -47 -84 -144z" />
<glyph unicode="9" horiz-adv-x="1008" d="M72 832l2 25l2 30q0 40 10.5 78.5t28.5 73.5q34 67 88 111t122.5 66.5t137.5 22.5q115 0 221 -57.5t174 -172.5t68 -269q0 -91 -30.5 -220t-152 -259.5t-281 -215t-290.5 -84.5l-24 2l-23 2l-18 27q144 15 256.5 81t189 155t115.5 170.5t39 119.5q-158 -82 -285 -82 q-107 0 -186 52q-39 26 -69.5 61.5t-52.5 81.5q-42 92 -42 201zM260 852l2 -32l2 -31q0 -35 29 -103t86 -120t131 -52q93 0 211 88q31 96 31 158q0 98 -45 229q-33 99 -92 149t-121 50q-57 0 -111 -43.5t-88.5 -121.5t-34.5 -171z" />
<glyph unicode=":" horiz-adv-x="2" d="M387 -320q0 44 32.5 75.5t78.5 31.5q42 0 73 -30t31 -77q0 -45 -30.5 -76.5t-73.5 -31.5q-46 0 -78.5 32t-32.5 76zM387 -632q0 44 32.5 75.5t78.5 31.5q42 0 73 -30t31 -77q0 -45 -30.5 -76.5t-73.5 -31.5q-46 0 -78.5 32t-32.5 76z" />
<glyph unicode=";" horiz-adv-x="879" d="M414 461l197 197l198 -197l-198 -199zM414 1051l197 199l198 -199l-198 -197z" />
<glyph unicode="&#x3c;" horiz-adv-x="1323" d="M68 953q0 43 18 130l21 101q3 25 24.5 39t46.5 14q0 -53 33 -53l168 -119q6 -21 6 -53q0 -74 -31.5 -163t-66.5 -111l-49 69l-49 -49q-37 -75 -37 -203q0 -19 1 -45t4 -55l7 -80l84 -82h4l82 82q64 73 119 169q28 48 50 98t36 102v86q-74 24 -74 137q0 48 16 128l17 89 q0 28 30.5 45.5t59.5 17.5q0 -63 29 -63l174 -147q6 -27 6 -64q0 -71 -27 -145t-69 -103l-47 64l-64 -74q-21 -64 -31 -91q-16 -44 -28 -74q-25 -63 -68.5 -131t-112.5 -136l-22 -31h291q92 33 165 99.5t124 156.5q24 43 43.5 92t33.5 101v47q-53 0 -88 53t-35 111v272 q0 63 86 63q0 -37 37 -67l117 -70v-321l-39 -41v-41q-5 -48 -13 -96t-17 -86t-25 -83t-35 -89q-41 -93 -117 -218l-43 -135h-682l-16 348q-16 80 -16 179q0 165 47 274l-17 29q-61 27 -61 123zM660 576q0 34 24.5 57t59.5 23q31 0 55.5 -23t24.5 -57v-4q0 -30 -24.5 -53 t-53.5 -23q-35 0 -60.5 24t-25.5 56zM1026 1346q0 45 31 74.5t78 29.5q44 0 74 -29t30 -75t-30.5 -78.5t-73.5 -32.5q-45 0 -77 33.5t-32 77.5z" />
<glyph unicode="=" horiz-adv-x="1137" d="M84 912v237q0 36 38 60t77 24l166 -84l41 -39q55 -55 55 -123q0 -20 -2 -35q-4 -18 -7 -32.5t-5 -26.5t-2 -22q0 -39 -39.5 -60.5t-83.5 -21.5q-52 0 -87.5 -53.5t-35.5 -110.5v-373h704q35 0 63 22q30 21 30 52v268q0 88 -39.5 163t-110.5 119t-162 44q-40 0 -77 -67 q-17 -32 -30.5 -67.5t-24.5 -83t-16 -86t-5 -77.5l-16 -17q-10 -9 -23 -10q-20 0 -41 27v82q0 99 42 234t103.5 232t118.5 97h16q101 0 178.5 -70.5t118.5 -174t41 -199.5v-607q0 -48 -21 -90.5t-71 -42.5h-815q-39 0 -39 207v414q0 69 15 118.5t69 49.5zM662 602 q0 45 31.5 75t76.5 30q44 0 75.5 -29.5t31.5 -75.5q0 -43 -31.5 -75.5t-75.5 -32.5q-45 0 -76.5 32t-31.5 76z" />
<glyph unicode="&#x3e;" horiz-adv-x="1194" d="M76 953q0 33 7 71q6 44 19 91l15 69q3 26 23.5 39.5t46.5 13.5q0 -53 32 -53l168 -119q9 -30 9 -53q0 -46 -15 -104.5t-38 -106.5t-48 -63l-49 69l-49 -49q-37 -75 -37 -203q0 -19 1 -45t4 -55l7 -80l84 -82h4l82 82q65 74 120.5 170t84.5 199v86q-74 24 -74 137 q0 28 5 66l16 85l12 66q0 27 30 45t60 18q0 -63 29 -63l174 -147q8 -26 8 -64q0 -71 -27.5 -145t-68.5 -103l-49 64l-64 -74q-37 -112 -61.5 -171.5t-65.5 -125.5t-112 -135l-21 -31h289q92 33 164.5 99t124.5 157.5t80 192.5v47q-55 0 -89 52t-34 112v272q0 63 84 63 q0 -26 8 -38t31 -29l114 -70v-321l-39 -41v-41q-5 -47 -13 -95.5t-17.5 -88.5t-24.5 -83.5t-35 -88.5t-49 -99t-67 -117l-44 -135h-681l-17 348q-16 124 -16 179q0 164 47 274l-17 29q-61 27 -61 123zM252 1354q0 44 31.5 74t77.5 30q45 0 75.5 -29.5t30.5 -74.5t-32 -78 t-74 -33q-44 0 -76.5 33.5t-32.5 77.5zM668 576q0 34 24.5 57t59.5 23q31 0 55.5 -23t24.5 -57v-4q0 -30 -24.5 -53t-53.5 -23q-35 0 -60.5 24t-25.5 56z" />
<glyph unicode="?" horiz-adv-x="1139" d="M115 1010q0 37 3.5 75.5t9.5 72.5q10 60 43.5 121t105.5 116q121 94 297 94q116 0 216 -46t159 -138t59 -217q0 -97 -41 -165t-152 -173q-72 -69 -110 -117q-33 -43 -50.5 -102t-17.5 -156h-180q0 115 18 184t55 119q18 24 48.5 58.5t73.5 78.5q78 81 107.5 116.5 t43.5 72.5q12 36 12 96q0 53 -22 105t-78 90t-147 38q-273 0 -273 -323h-180zM453 0v209h199v-209h-199z" />
<glyph unicode="@" horiz-adv-x="2079" d="M301 740q0 207 104.5 385.5t283.5 281.5t384 103q140 0 268 -46.5t227 -133.5t154.5 -205.5t55.5 -253.5q0 -132 -48 -242.5t-124.5 -188.5t-162 -119.5t-155.5 -41.5q-53 0 -91 33q-19 18 -29.5 41.5t-10.5 54.5l-4 -2q-118 -127 -245 -127q-88 0 -156 44.5t-107 119.5 t-39 163q0 139 60 271.5t169 213.5t245 81q160 0 235 -160l41 127h139q-23 -88 -83 -290l-79 -272q-22 -78 -22 -106q0 -59 43 -59q68 0 136 64.5t111.5 168.5t43.5 209q0 157 -76.5 277.5t-208.5 186t-287 65.5q-135 0 -250 -50.5t-197.5 -140t-128.5 -210t-46 -255.5 q0 -176 84 -323.5t230.5 -231.5t322.5 -84q95 0 187.5 28.5t171.5 80.5t138 125h138q-66 -110 -166 -192q-51 -41 -105 -72t-117 -53q-119 -44 -251 -44q-217 0 -396.5 104t-283 282.5t-103.5 392.5zM774 625q0 -87 48.5 -143t123.5 -56q81 0 152.5 66t112.5 163.5t41 180.5 q0 75 -50.5 131.5t-117.5 56.5q-86 0 -157 -61.5t-112 -157t-41 -180.5z" />
<glyph unicode="A" horiz-adv-x="2" d="M70 -199l395 2v-131h-395v129zM653 -270q0 39 28 67t67 28t67 -28t28 -67q0 -40 -27 -68t-68 -28q-39 0 -67 28t-28 68zM653 -594q0 39 28 67t67 28t67 -28t28 -67q0 -40 -27 -68t-68 -28q-39 0 -67 28t-28 68z" />
<glyph unicode="B" horiz-adv-x="1095" d="M106 0q0 262 68 262h630v521q0 53 -29.5 95t-76.5 42h-524q-62 30 -62 131q0 106 62 176q16 -43 65 -43h424q63 0 116.5 -39.5t84.5 -101.5q15 -31 23 -61t8 -62v-658h133v-131l-133 -131h-789zM335 609q0 44 32 76q32 30 77 30q30 0 52 -14q25 -14 38.5 -38.5 t13.5 -53.5q0 -46 -30.5 -77.5t-73.5 -31.5q-46 0 -77.5 32t-31.5 77z" />
<glyph unicode="C" horiz-adv-x="1082" d="M82 1006q0 84 47 178q17 51 60 51l-4 -8l-3 -8l-2 -8q0 -27 33 -39l221 -88l-4 -273l201 -207l39 7l108 282l-102 80v211q0 24 18 47t44 23q-3 -16 -4 -21t-3 -8q0 -21 33 -41l240 -178l2 -185q0 -39 -11 -65.5t-30 -38.5l1 7l1 7q0 26 -55 66l-47 45l-48 27l-102 -299 v-5l240 -251q49 -57 49 -144q0 -69 -42.5 -120.5t-115.5 -51.5h-706q0 266 69 266l649 -2l-204 232l-205 162q-123 147 -123 168l2 2l-178 69q-68 20 -68 111zM213 482q0 45 31 75.5t78 30.5q43 0 74.5 -30t31.5 -76q0 -45 -32 -77t-74 -32q-46 0 -77.5 32t-31.5 77z" />
<glyph unicode="D" horiz-adv-x="1090" d="M70 1053q0 82 74 172q0 -17 22.5 -29t40.5 -12h688q43 0 83 -21.5t40 -60.5v-137q0 -10 -35.5 -27.5t-48.5 -17.5v-858q0 -62 -33 -62h-86v920h-659q-86 44 -86 133zM353 611q0 46 32 75q31 31 78 31q42 0 73.5 -30.5t31.5 -75.5q0 -42 -32 -75.5t-73 -33.5q-45 0 -78 33 q-16 17 -24 35t-8 41z" />
<glyph unicode="E" horiz-adv-x="2" d="M95 -316q0 39 28 67t67 28t67 -28t28 -67q0 -38 -28 -65t-67 -27t-67 27t-28 65zM259 -612q0 39 28 67t67 28t67 -28t28 -67q0 -38 -28 -65t-67 -27t-67 27t-28 65zM437 -316q0 39 28 67t67 28t67 -28t28 -67q0 -38 -28 -65t-67 -27t-67 27t-28 65zM755 -300q0 39 28 67 t67 28t67 -28t28 -67q0 -38 -28 -65t-67 -27t-67 27t-28 65zM755 -624q0 39 28 67t67 28t67 -28t28 -67q0 -40 -27 -68t-68 -28q-39 0 -67 28t-28 68z" />
<glyph unicode="F" horiz-adv-x="2" d="M129 -199h461v-131h-170v-201h-131v201h-160v131zM719 -270q0 39 28 67t67 28t67 -28t28 -67q0 -40 -27 -68t-68 -28q-39 0 -67 28t-28 68zM719 -594q0 39 28 67t67 28t67 -28t28 -67q0 -40 -27 -68t-68 -28q-39 0 -67 28t-28 68z" />
<glyph unicode="G" horiz-adv-x="695" d="M66 0q0 262 65 262h197q105 0 137 84v478q0 33 -21.5 64.5t-52.5 31.5h-219q-41 59 -41 151q0 106 66 154q0 -11 22.5 -26t34.5 -15h215q30 0 59 -26q29 -24 29 -54v-823q11 -32 22 -65t14 -45l11 -48l11 -52l6 -46l4 -25h-98v13q0 27 -6 69l-9 66l-100 -21l-25 -39 l-41 -39l-84 -49h-196zM156 604q0 46 32 76.5t76 30.5t75.5 -30.5t31.5 -76.5q0 -42 -32 -75t-75 -33q-45 0 -76.5 31.5t-31.5 76.5z" />
<glyph unicode="H" horiz-adv-x="1151" d="M110 0l2 404q8 49 57 113q25 34 49 55t54 34v-75q-15 -23 -29 -65t-14 -56v-287q0 -47 -37.5 -85t-81.5 -38zM124 1057q0 53 21 102.5t57 65.5q0 -17 26 -29t46 -12h729q30 0 50 -23t20 -53v-127q0 -22 -23 -41.5t-47 -19.5v-797q0 -123 -37 -123h-80l2 920h-725 q-39 45 -39 137zM448 619q0 44 32 74t79 30q30 0 53.5 -14t37 -36.5t13.5 -53.5q0 -46 -31.5 -78.5t-72.5 -32.5q-45 0 -78 33t-33 78z" />
<glyph unicode="I" horiz-adv-x="2" d="M342 -303q0 45 31.5 75.5t77.5 30.5q43 0 74.5 -30t31.5 -76q0 -44 -32 -76.5t-74 -32.5q-45 0 -77 32.5t-32 76.5z" />
<glyph unicode="J" horiz-adv-x="1168" d="M64 953q0 30 6 71q3 21 6 36t12 52l15 72q0 25 23.5 39t45.5 14q0 -53 35 -53l168 -119q6 -21 6 -53q0 -73 -31.5 -162t-66.5 -112l-51 69l-47 -49q-37 -74 -37 -203q0 -39 6 -107l6 -73l84 -82h4l80 82q64 70 121 169q28 49 49.5 98t36.5 102v86q-74 23 -74 137 q0 30 5 70l15 83l13 64q0 29 30 46t58 17q0 -63 29 -63l176 -147q6 -27 6 -64q0 -72 -27.5 -146t-68.5 -102l-48 64l-63 -74q-37 -112 -61.5 -171.5t-67 -126t-111.5 -134.5l-22 -31h289q95 34 166.5 99.5t122.5 155.5q26 48 45 93.5t34 100.5v47q-53 0 -88 53t-35 111v272 q0 63 86 63q0 -24 8.5 -38t28.5 -29l117 -70v-321l-39 -41v-41q-5 -48 -13 -96t-17 -86t-25 -83t-35 -89q-41 -93 -117 -218l-43 -135h-682l-18 348q-15 113 -15 179q0 167 46 274l-15 29q-61 27 -61 123zM656 576q0 35 24 57.5t58 22.5q33 0 57 -23t24 -57v-4 q0 -30 -24.5 -53t-54.5 -23q-33 0 -58.5 24t-25.5 56z" />
<glyph unicode="K" horiz-adv-x="936" d="M76 0q0 260 68 260l458 -2q84 0 136 93q28 50 44.5 109t16.5 126v117q0 36 -7.5 62.5t-23.5 56.5q-26 48 -64 72q-22 13 -41 19.5t-42 6.5h-467q-22 18 -38.5 53.5t-16.5 77.5q0 50 27 97.5t83 76.5q0 -17 22.5 -29t39.5 -12h350q61 0 117 -71t90 -178.5t34 -209.5v-164 q0 -57 -9 -116.5t-29 -128.5q-38 -130 -98.5 -223t-123.5 -93h-526zM330 604q0 45 32.5 76t78.5 31q43 0 73.5 -30.5t30.5 -76.5q0 -44 -30.5 -76t-73.5 -32q-24 0 -42 7t-37 25q-32 32 -32 76z" />
<glyph unicode="L" horiz-adv-x="1102" d="M97 1090v215q0 87 18 123q34 25 48 47t17 49q0 10 -3 16q-1 5 -10 14l-21 25l-5 11l-4 12l-2 14q0 57 62 57q46 0 73 -31q25 -31 25 -65q-15 -100 -82 -151q-41 -46 -41 -72q0 -12 23 -43q15 -58 50.5 -92.5t70.5 -34.5h499q79 0 142 -51.5t63 -128.5v-373 q0 -71 -41 -113l-287 -286q-27 -21 -40 -47t-22.5 -63t-18.5 -52l-46 -70h-81q-35 0 -35 80q0 47 8 78.5t27 54.5l53 58l162 120l204 205v209q0 54 -53 84.5t-112 30.5h-525q-54 0 -85 55t-31 115zM373 656q0 45 31 74.5t78 29.5q43 0 74.5 -29t31.5 -75q0 -45 -32 -78 t-74 -33q-45 0 -77 32.5t-32 78.5z" />
<glyph unicode="M" horiz-adv-x="1157" d="M80 932q0 64 24.5 136.5t53.5 109.5q31 49 51.5 67.5t48.5 18.5q-6 0 -6 -33q0 -30 23 -53l164 -162v-123l57 10l43 52q50 268 190 268l33 -2q99 0 173 -60t115 -157q20 -49 30 -94.5t10 -96.5v-567q0 -81 -39.5 -163.5t-110.5 -82.5l-2 2h-631q0 277 148 277h559l-2 293 q0 89 -54.5 153.5t-139.5 98.5t-175 34h-125l-39 -12l-40 -29l-164 -163l-25 -31l-16 -51v-408q0 -46 -36 -84.5t-81 -38.5v445l123 225l-123 106q-18 20 -27.5 49t-9.5 66zM516 559q0 45 32 75t79 30q42 0 73 -29.5t31 -75.5t-30.5 -78t-73.5 -32q-45 0 -78 33t-33 77z" />
<glyph unicode="N" horiz-adv-x="676" d="M115 0q0 262 63 262h306v592q0 66 -109 66l-178 -2q-45 45 -45 147q0 59 24 104.5t72 55.5q3 -17 24 -29t37 -12h166q28 0 62.5 -22.5t34.5 -45.5v-1050q0 -21 -20 -43.5t-46 -22.5h-391zM180 613q0 45 31.5 75.5t77.5 30.5q43 0 75 -30t32 -76q0 -43 -32.5 -76 t-74.5 -33q-44 0 -76.5 32.5t-32.5 76.5z" />
<glyph unicode="O" horiz-adv-x="590" d="M115 1049q0 90 35 135l28 41l-2 -6q0 -35 33 -35h86q86 0 138 -26t52 -68v-1018q0 -33 -24.5 -52.5t-58.5 -19.5h-62l-1 16l-1 15q0 26 10 66q33 27 33 65v680q0 25 -18 51.5t-43 26.5l-158 16q-47 29 -47 113zM172 1401q0 44 32.5 75.5t78.5 31.5q43 0 73.5 -30.5 t30.5 -76.5q0 -44 -30.5 -76t-73.5 -32q-46 0 -78.5 32.5t-32.5 75.5z" />
<glyph unicode="P" horiz-adv-x="1017" d="M80 19q0 243 64 243h690v516q0 82 -39.5 112t-126.5 30h-422v-191h160l21 -1l20 -1q86 0 86 -39l-8 -96q0 -31 -23.5 -63.5t-52.5 -32.5h-187q-7 0 -29.5 -21t-23.5 -36q-15 3 -20.5 16t-5.5 67l2 76v318l-29 16q-9 52 -14 87.5t-5 57.5q0 42 6 71q4 27 9 38q15 42 39 51 l-1 -6l-1 -6q0 -41 28 -41h449q116 0 191 -25t75 -108v-920q0 -131 -67 -131l-783 2l-1 8zM598 637q0 36 24.5 59t61.5 23q34 0 58 -23t24 -59q0 -34 -25 -59t-57 -25q-35 0 -61 25q-25 27 -25 59z" />
<glyph unicode="Q" horiz-adv-x="1045" d="M97 1086q0 39 10.5 64t16.5 34q16 43 35 43q0 -43 55 -43h496q65 0 108 -43q20 -20 34.5 -53.5t23.5 -73.5q45 -189 61 -326t16 -303q0 -89 -53 -142q-46 -46 -168 -93q-38 -8 -66 -15q-12 -3 -92 -28q-27 -8 -61 -24q-26 -12 -66 -34q-56 -31 -69 -39q-34 -21 -70 -48 v120q37 28 65 45.5t74 42.5q89 47 226 84q98 34 131 67q37 37 37 107q0 114 -4.5 162.5t-29.5 164.5q-9 44 -22 82q-17 51 -32 61q-31 22 -100 22h-492q-64 85 -64 166zM117 514q0 45 5 68.5t24.5 55t38 49t52.5 34.5l36 -98q-34 -29 -42.5 -68t-8.5 -108v-828 q0 -55 -33 -102q-16 -22 -22 -28q-19 -20 -50 -20v1045zM429 611q0 46 32 75q31 31 79 31q41 0 72.5 -30.5t31.5 -75.5q0 -42 -32 -75.5t-72 -33.5q-45 0 -78 32.5t-33 76.5z" />
<glyph unicode="R" horiz-adv-x="1069" d="M86 1047q0 89 33 133q28 49 51 49l-1 -9l-1 -9q0 -27 31 -27h553q62 0 113 -28t79.5 -74t28.5 -103v-979h-96v819q0 101 -166 101h-594q-31 45 -31 127zM402 621q0 45 30 75q32 29 78 29t76.5 -30t30.5 -74t-32 -77.5t-75 -33.5q-44 0 -76 32.5t-32 78.5z" />
<glyph unicode="S" horiz-adv-x="1008" d="M82 1049q0 88 39 139l27 39q0 -17 16 -30t31 -13h289q165 0 264.5 -47t144.5 -147q22 -49 33.5 -115.5t11.5 -145.5v-139q0 -135 -39 -270t-122 -227.5t-201 -92.5h-103q-76 0 -142 52t-113.5 132t-74 165t-26.5 143v100q0 103 45 199.5t96 128.5h-114q-62 29 -62 129z M183 598l4 -65q0 -89 84 -187q36 -37 95 -71.5t113 -34.5h130l2 -2q128 0 203 94t75 240v125q0 126 -117.5 175.5t-380.5 49.5l-79 -2q-84 -81 -129 -322zM428 613q0 45 31.5 75.5t77.5 30.5q42 0 73 -30t31 -76q0 -45 -30.5 -77t-73.5 -32q-45 0 -77 32.5t-32 76.5z" />
<glyph unicode="T" horiz-adv-x="1040" d="M92 137q13 34 53.5 49t64.5 27t30 58q0 75 -49 127q-12 5 -24 23.5t-12 35.5v199q0 93 3 125q9 90 51 139l-39 26q-23 28 -35 55t-12 52q0 60 57 131l33 43l-1 -8l-1 -8q0 -27 35 -27h489q107 0 164 -61t57 -177v-946h-102v831q0 38 -27 63.5t-63 25.5h-473 q-17 -11 -30 -54.5t-13 -82.5v-291q0 -34 15 -58t48 -55q29 -28 46 -48q14 -19 14 -44v-199q0 -33 -37.5 -60.5t-71.5 -27.5h-168zM432 611q0 45 31 75.5t78 30.5q43 0 74.5 -30t31.5 -76q0 -44 -32 -76.5t-74 -32.5q-45 0 -77 32.5t-32 76.5z" />
<glyph unicode="U" horiz-adv-x="589" d="M64 611q0 45 31 75.5t77 30.5q43 0 75 -30t32 -76q0 -42 -32 -75.5t-75 -33.5t-76 33q-16 17 -24 35t-8 41zM115 1049q0 90 35 135l28 41l-2 -6q0 -35 33 -35h86q86 0 138 -26t52 -68v-1018q0 -33 -24.5 -52.5t-58.5 -19.5h-62l-1 16l-1 15q0 26 10 66q33 27 33 65v680 q0 25 -18 51.5t-43 26.5l-158 16q-47 29 -47 113z" />
<glyph unicode="V" horiz-adv-x="974" d="M82 1077q0 39 5 71l7 38q15 41 39 51l-1 -6l-1 -6q0 -15 8.5 -28t20.5 -13h449q116 0 191 -25t75 -108v-1578h-94l-3 1305q0 82 -40.5 112t-126.5 30h-422v-191h159l22 -1l19 -1q86 0 86 -39l-8 -96q0 -32 -23.5 -64t-52.5 -32h-184q-9 0 -32 -21.5t-23 -35.5 q-15 3 -21 15.5t-6 67.5l2 76v318l-28 16q-17 90 -17 145z" />
<glyph unicode="W" horiz-adv-x="612" d="M115 1049q0 90 35 135l28 41l-2 -6q0 -35 33 -35h86q86 0 138 -26t52 -68v-1018q0 -33 -24.5 -52.5t-58.5 -19.5h-62l-1 16l-1 15q0 26 10 66q33 27 33 65v680q0 25 -18 51.5t-43 26.5l-158 16q-47 29 -47 113z" />
<glyph unicode="X" horiz-adv-x="1121" d="M101 1086q0 75 24 98l41 47q0 -47 21 -47l772 -4q31 0 58.5 -14t27.5 -45l2 -138q0 -28 -30.5 -45.5t-59.5 -17.5l-2 -920h-105v920h-596q0 -123 -33 -174v-592q0 -66 -15 -110t-66 -44h-35v682l-1 6l-1 7q0 32 9 55t17 38q1 2 15 25l31 53q10 22 10 42v12q-38 0 -61 52 t-23 114zM422 613q0 44 32 76q32 30 79 30q42 0 73 -30t31 -76q0 -45 -30.5 -77t-73.5 -32q-45 0 -78 33t-33 76z" />
<glyph unicode="Y" horiz-adv-x="611" d="M53 689q0 44 31.5 74t78.5 30q45 0 75 -29t30 -75t-31.5 -78.5t-73.5 -32.5q-45 0 -77.5 33.5t-32.5 77.5zM80 1063q0 63 37 127l33 37q0 -13 13 -30q7 -8 12.5 -11.5t13.5 -5.5l82 -22q36 -10 78.5 -31t69.5 -43q38 -32 56 -58q15 -22 28 -54q19 -46 20.5 -87t1.5 -114 v-244h-106v252q0 33 -27 63.5t-66 48.5q-25 16 -76 25q-29 5 -42.5 8.5t-37.5 11.5q-30 11 -63 45q-27 21 -27 82z" />
<glyph unicode="Z" horiz-adv-x="708" d="M38 599q0 44 31.5 74t78.5 30q42 0 73.5 -30.5t31.5 -73.5q0 -44 -32 -77.5t-73 -33.5q-45 0 -77.5 33.5t-32.5 77.5zM318 1198q0 16 13.5 29.5t25.5 13.5q0 -38 27 -49l274 -109v-276q-2 8 -3.5 12t-10.5 14q-16 18 -39 27l-88 31q-8 -46 -11 -72q-12 -80 -16 -122 q-7 -68 -10.5 -169t-3.5 -183q0 -52 0.5 -86t1.5 -58v-187h-121v199q0 55 -1 96.5t-2 78.5q0 104 8 192.5t32 180.5q11 45 29 97q6 20 19 53l-48 25l-72 33z" />
<glyph unicode="[" horiz-adv-x="570" d="M129 -402v1881h383v-146l-266 3v-1598h266v-140h-383z" />
<glyph unicode="\" horiz-adv-x="1103" d="M86 1057q0 56 21 103.5t57 64.5q0 -17 26 -29t44 -12h731q29 0 49 -22.5t20 -53.5v-127q0 -23 -22.5 -42t-46.5 -19v-1447h-113l-2 1447h-725q-39 45 -39 137z" />
<glyph unicode="]" horiz-adv-x="570" d="M58 -283h270v1619l-270 -3v146h383v-1881h-383v119z" />
<glyph unicode="^" />
<glyph unicode="_" horiz-adv-x="1139" d="M0 -154h1139v-102h-1139v102z" />
<glyph unicode="`" horiz-adv-x="682" d="M29 1503h221l182 -288h-137z" />
<glyph unicode="a" horiz-adv-x="2" d="M295 -201h393v-133h-393v133z" />
<glyph unicode="b" horiz-adv-x="1135" d="M119 0q0 262 66 262h630v521q0 53 -29.5 95t-76.5 42h-524q-62 30 -62 131q0 106 62 176q16 -43 65 -43h424q62 0 116.5 -39.5t86 -101.5t31.5 -123v-658h131v-131l-131 -131h-789z" />
<glyph unicode="c" horiz-adv-x="1097" d="M82 1006q0 84 47 178q17 51 60 51l-4 -8l-3 -8l-2 -8q0 -27 33 -39l221 -88l-4 -273l201 -207l39 7l108 282l-102 80v211q0 24 18 47t44 23q-3 -16 -4 -21t-3 -8q0 -21 33 -41l240 -178l2 -185q0 -39 -11 -65.5t-30 -38.5l1 7l1 7q0 26 -55 66l-47 45l-48 27l-102 -299 v-5l240 -251q49 -57 49 -144q0 -69 -42.5 -120.5t-115.5 -51.5h-706q0 266 69 266l649 -2l-204 232l-205 162q-123 147 -123 168l2 2l-178 69q-68 20 -68 111z" />
<glyph unicode="d" horiz-adv-x="1095" d="M82 1053q0 82 72 172q0 -17 22.5 -29t40.5 -12h697q43 0 83 -22t40 -60v-137q0 -11 -39 -29q-38 -16 -54 -16v-858q0 -62 -32 -62h-86v920h-660q-84 45 -84 133z" />
<glyph unicode="e" horiz-adv-x="2" d="M284 -300q0 39 28 67t67 28t67 -28t28 -67q0 -38 -28 -65t-67 -27t-67 27t-28 65zM483 -596q0 39 28 67t67 28t67 -28t28 -67q0 -38 -28 -65t-67 -27t-67 27t-28 65zM685 -300q0 39 28 67t67 28t67 -28t28 -67q0 -38 -28 -65t-67 -27t-67 27t-28 65z" />
<glyph unicode="f" horiz-adv-x="2" d="M340 -199h461v-131h-170v-250h-131v250h-160v131z" />
<glyph unicode="g" horiz-adv-x="731" d="M92 0q0 262 66 262h197q105 0 137 84v478q0 33 -21.5 64.5t-52.5 31.5h-219q-41 59 -41 151q0 107 65 154q0 -11 21.5 -26t36.5 -15h215q30 0 58 -25.5t28 -54.5v-823q26 -68 37 -109l12 -49l10 -57l11 -66h-99v13q0 13 -1 31t-4 38l-9 66l-100 -21l-25 -39l-41 -39 l-84 -49h-197z" />
<glyph unicode="h" horiz-adv-x="1121" d="M80 0l2 404q8 49 57 113q25 34 49 55t54 34v-75q-15 -23 -29 -65t-14 -56v-287q0 -47 -37.5 -85t-81.5 -38zM94 1057q0 53 21 102.5t57 65.5q0 -17 26 -29t46 -12h729q30 0 50 -23t20 -53v-127q0 -22 -23 -41.5t-47 -19.5v-797q0 -123 -37 -123h-80l2 920h-725 q-39 45 -39 137z" />
<glyph unicode="i" horiz-adv-x="2" d="M418 -316q0 45 32 76t77 31q44 0 75 -30.5t31 -76.5q0 -43 -32 -75.5t-74 -32.5q-45 0 -77 32.5t-32 75.5z" />
<glyph unicode="j" horiz-adv-x="1137" d="M92 1190q0 26 30.5 43t57.5 17q0 -48 23 -48l266 -159l-10 -217q-40 -60 -62 -199t-22 -277l27 -20l424 514l-121 104v240q0 23 27.5 37t54.5 14l-1 -6l-1 -10q0 -19 12 -21l270 -239l-37 -277q-3 -24 -39 -24q7 0 7 20q0 15 -9 21l-106 106l-477 -583v-753h-105l-4 1101 q15 154 43 252l-6 -1l-6 -1q-51 0 -130 40.5t-104 83.5v240z" />
<glyph unicode="k" horiz-adv-x="936" d="M70 0q0 260 65 260l461 -2q84 0 136 93q28 50 44.5 109t16.5 126v117q0 51 -15.5 90.5t-42.5 67.5t-57.5 43.5t-64.5 15.5h-465q-23 18 -39.5 56t-16.5 75q0 49 27.5 97t81.5 77q0 -17 22.5 -29t38.5 -12h351q62 0 119 -70.5t90.5 -177.5t33.5 -211v-164q0 -57 -9 -116.5 t-29 -128.5q-38 -130 -98.5 -223t-123.5 -93h-526z" />
<glyph unicode="l" horiz-adv-x="1104" d="M92 1090v215q0 86 17 123q36 25 49 45t18 51q-1 13 -5 18l-13 16l-18 21q-4 9 -6 19.5t-3 17.5q0 57 62 57q46 0 73 -31q25 -31 25 -65q-15 -100 -82 -151q-41 -44 -41 -72q0 -12 23 -43q15 -58 50.5 -92.5t70.5 -34.5h499q79 0 142 -51.5t63 -128.5v-373q0 -71 -41 -113 l-287 -286q-28 -24 -39.5 -46.5t-21.5 -59t-21 -56.5l-45 -70h-82q-34 0 -34 80q0 38 10.5 77.5t23.5 55.5l54 58l162 120l204 205v209q0 55 -53.5 85t-112.5 30h-524q-53 0 -86 55q-31 57 -31 115z" />
<glyph unicode="m" horiz-adv-x="1164" d="M74 932q0 32 6 65t20 71q26 74 54 110q31 49 51.5 67.5t48.5 18.5q-6 0 -6 -33q0 -30 23 -53l163 -162v-123l58 10l43 52q50 268 190 268l33 -2q99 0 173 -60.5t113 -155.5q20 -50 30 -95.5t10 -96.5v-567q0 -47 -16 -105t-49.5 -99.5t-82.5 -41.5l-2 2h-631 q0 277 148 277h559l-2 293q0 89 -54.5 153.5t-139.5 98.5t-175 34h-125l-39 -12l-41 -29l-163 -163l-25 -31l-16 -51v-408q0 -28 -16.5 -57t-44 -47.5t-56.5 -18.5v445l121 225l-121 106q-39 44 -39 115z" />
<glyph unicode="n" horiz-adv-x="661" d="M107 0q0 262 63 262h307v592q0 66 -108 66l-178 -2q-45 45 -45 147q0 58 24 103.5t72 56.5q3 -17 23.5 -29t37.5 -12h166q28 0 62 -21.5t34 -46.5v-1050q0 -23 -20 -44.5t-45 -21.5h-393z" />
<glyph unicode="o" horiz-adv-x="131" d="M-31 1344q0 44 32 74t79 30q42 0 73.5 -29.5t31.5 -74.5q0 -43 -32 -77t-73 -34q-45 0 -78 33t-33 78z" />
<glyph unicode="p" horiz-adv-x="1011" d="M74 19q0 243 63 243h693v516q0 81 -39.5 111.5t-126.5 30.5h-422v-191h160l21 -1l20 -1q86 0 86 -39l-11 -96q0 -31 -23 -63.5t-50 -32.5h-187q-6 0 -30.5 -21.5t-24.5 -35.5h4q-17 3 -23 15t-6 68l2 76v318l-28 16q-9 43 -14 79t-5 66q0 42 6 71q4 27 9 38q14 42 39 51 l-1 -6l-1 -6q0 -41 28 -41h449q115 0 189.5 -25t74.5 -108v-920q0 -131 -66 -131l-784 2l-1 8z" />
<glyph unicode="q" horiz-adv-x="1023" d="M82 1086q0 39 10.5 64t16.5 34q16 43 35 43q0 -43 55 -43h496q65 0 108 -43q20 -20 34.5 -53.5t23.5 -73.5q45 -189 61 -326t16 -303q0 -89 -53 -142q-46 -46 -168 -93q-38 -8 -66 -15q-12 -3 -92 -28q-27 -8 -61 -24q-26 -12 -66 -34q-56 -31 -69 -39q-34 -21 -70 -48 v120q37 28 65 45.5t74 42.5q89 47 226 84q98 34 131 67q37 37 37 107q0 114 -4.5 162.5t-29.5 164.5q-9 44 -22 82q-17 51 -32 61q-31 22 -100 22h-492q-64 85 -64 166zM102 514q0 45 5 68.5t24.5 55t38 49t52.5 34.5l36 -98q-34 -29 -42.5 -68t-8.5 -108v-828 q0 -55 -33 -102q-16 -22 -22 -28q-19 -20 -50 -20v1045z" />
<glyph unicode="r" horiz-adv-x="1063" d="M72 1047q0 85 33 133.5t53 48.5l-1 -9l-1 -9q0 -27 31 -27h551q92 0 156.5 -59t64.5 -146v-979h-97v819q0 60 -45.5 80.5t-119.5 20.5h-594q-31 47 -31 127z" />
<glyph unicode="s" horiz-adv-x="1038" d="M101 1049q0 88 39 139l27 39q0 -15 16 -30q16 -13 31 -13h291q166 0 265 -47t142 -147q22 -49 33.5 -115.5t11.5 -145.5v-139q0 -98 -20.5 -199.5t-65 -191t-114.5 -144.5t-162 -55h-103q-97 0 -179 86t-130 204q-23 59 -35 109.5t-12 92.5v100q0 104 45 200.5t96 127.5 h-114q-62 29 -62 129zM202 598l4 -65q0 -83 84 -187q36 -37 95 -71.5t114 -34.5h129l4 -2q85 0 147.5 42.5t95.5 119.5t33 172v125q0 85 -52.5 134t-159.5 70t-283 21l-82 -2q-83 -83 -129 -322z" />
<glyph unicode="t" horiz-adv-x="1050" d="M92 137q13 34 53.5 49t64.5 27t30 58q0 75 -49 127q-12 5 -24 23.5t-12 35.5v199q0 93 3 125q9 90 51 139l-39 26q-23 28 -35 55t-12 52q0 60 57 131l33 43l-1 -8l-1 -8q0 -27 35 -27h489q107 0 164 -61t57 -177v-946h-102v831q0 38 -27 63.5t-63 25.5h-473 q-17 -11 -30 -54.5t-13 -82.5v-291q0 -34 15 -58t48 -55q29 -28 46 -48q14 -19 14 -44v-199q0 -33 -37.5 -60.5t-71.5 -27.5h-168z" />
<glyph unicode="u" horiz-adv-x="2" d="M178 -297q0 44 31.5 74t77.5 30q44 0 74 -29.5t30 -74.5q0 -46 -30.5 -78.5t-73.5 -32.5q-45 0 -77 33.5t-32 77.5zM391 -461q0 44 32 76q32 30 79 30q44 0 74 -30t30 -76q0 -44 -30.5 -76.5t-73.5 -32.5q-45 0 -78 33t-33 76zM621 -641q0 45 30 75q32 29 78 29 q45 0 75 -29t30 -75t-31.5 -78.5t-73.5 -32.5q-44 0 -76 32.5t-32 78.5z" />
<glyph unicode="v" horiz-adv-x="981" d="M82 1077q0 39 5 71l7 38q15 41 39 51l-1 -6l-1 -6q0 -15 8.5 -28t20.5 -13h449q116 0 191 -25t75 -108v-1578h-94l-3 1305q0 82 -40.5 112t-126.5 30h-422v-191h159l22 -1l19 -1q86 0 86 -39l-8 -96q0 -32 -23.5 -64t-52.5 -32h-184q-9 0 -32 -21.5t-23 -35.5 q-15 3 -21 15.5t-6 67.5l2 76v318l-28 16q-17 90 -17 145z" />
<glyph unicode="w" horiz-adv-x="597" d="M115 1049q0 90 35 135l28 41l-2 -6q0 -35 33 -35h86q86 0 138 -26t52 -68v-1018q0 -33 -24.5 -52.5t-58.5 -19.5h-62l-1 16l-1 15q0 26 10 66q33 27 33 65v680q0 25 -18 51.5t-43 26.5l-158 16q-47 29 -47 113z" />
<glyph unicode="x" horiz-adv-x="1102" d="M76 1086q0 74 25 98l43 47q0 -47 18 -47l774 -4q30 0 57 -14t27 -45l2 -138q0 -29 -29 -46t-61 -17v-920h-106v920h-596q0 -123 -33 -174v-592q0 -154 -80 -154h-35v682l-1 6l-1 7q0 33 10 57q4 10 13 28.5t19 34.5l30 54q8 18 8 39v12q-38 0 -62 54q-10 25 -16 53.5 t-6 58.5z" />
<glyph unicode="y" horiz-adv-x="616" d="M80 1063q0 63 37 127l33 37q0 -13 13 -30q7 -8 12.5 -11.5t13.5 -5.5l82 -22q36 -10 78.5 -31t69.5 -43q38 -32 56 -58q15 -22 28 -54q19 -46 20.5 -87t1.5 -114v-244h-106v252q0 33 -27 63.5t-66 48.5q-25 16 -76 25q-29 5 -42.5 8.5t-37.5 11.5q-30 11 -63 45 q-27 21 -27 82z" />
<glyph unicode="z" horiz-adv-x="532" d="M90 1186q0 16 13.5 29.5t25.5 13.5q0 -38 27 -49l274 -109v-276q-2 8 -3.5 12t-10.5 14q-16 18 -39 27l-88 31q-8 -46 -11 -72q-12 -80 -16 -122q-7 -68 -10.5 -169t-3.5 -183q0 -52 0.5 -86t1.5 -58v-187h-121v199q0 55 -1 96.5t-2 78.5q0 104 8 192.5t32 180.5 q11 45 29 97q6 20 19 53l-48 25l-72 33z" />
<glyph unicode="{" horiz-adv-x="1061" d="M86 1071q0 47 11.5 75t19.5 38l27 37q5 6 16 6q-2 -4 -2 -6q0 -37 18 -37h506q157 0 229 -80.5t72 -245.5v-858h-858v654q0 46 3 68t9 39t9 27q12 33 25 57q6 11 28 52q11 20 12 23q-44 0 -69.5 6t-36.5 29q-9 35 -14 63.5t-5 52.5zM225 272h656v386q0 268 -199 268h-376 q-13 -14 -25 -36q-16 -31 -23 -45q-12 -23 -17.5 -39t-9 -35t-5 -59t-1.5 -58v-382z" />
<glyph unicode="|" horiz-adv-x="1121" d="M90 1057q0 56 21 103.5t57 64.5q0 -17 26 -29t46 -12h729q29 0 49.5 -23t20.5 -53v-127q0 -22 -23 -41.5t-47 -19.5v-1447h-113l-2 1447h-725q-39 45 -39 137zM373 307q0 45 30.5 75t78.5 30q43 0 74.5 -30t31.5 -75q0 -44 -32 -77t-74 -33q-45 0 -77 32.5t-32 77.5z M377 623q0 45 31 74.5t78 29.5q43 0 74.5 -29t31.5 -75q0 -45 -32 -78t-74 -33q-45 0 -77 33.5t-32 77.5z" />
<glyph unicode="}" horiz-adv-x="624" d="M99 1065q0 59 24 104.5t72 55.5q2 -17 23.5 -29t37.5 -12h166q28 0 62 -22t34 -46l-2 -1643h-106v1378q0 36 -16 51q-19 18 -72 18l-176 -2q-21 21 -34 61t-13 86z" />
<glyph unicode="~" horiz-adv-x="1196" d="M125 484q92 176 256 176q79 0 228 -66q162 -74 208 -74q54 0 94 38q18 18 41 46.5t46 63.5l73 -115q-110 -176 -256 -176q-84 0 -210 69.5t-234 69.5q-104 0 -172 -147z" />
<glyph horiz-adv-x="1024" d="M101 932q0 44 33 70t75 26q39 0 141.5 -38.5t143.5 -38.5q0 50 -46 168.5t-46 168.5q0 51 31 92.5t79 41.5q50 0 82 -39q29 -41 29 -95q0 -50 -46 -168.5t-46 -168.5q48 0 149 38.5t135 38.5q45 0 78 -24q15 -14 23 -31.5t8 -40.5q0 -41 -33 -70q-34 -26 -76 -26 q-39 0 -141 39t-143 39q0 -79 22 -135.5t80 -100.5q-21 -83 -37 -154q-19 -88 -30 -170.5t-11 -160.5q0 -71 -5 -181q-8 -183 -9 -199q-6 -144 -6 -217h-45q0 92 -1.5 193.5t-2.5 216.5q0 78 -13 197q-3 26 -16 133q-22 180 -66 342q56 41 79.5 101t23.5 135q-46 0 -148 -39 t-137 -39q-46 0 -77 26t-31 70z" />
<glyph horiz-adv-x="910" d="M88 1098q0 111 91.5 200t275.5 89q161 0 265 -85t104 -233q0 -126 -93 -245q-101 -128 -184 -228q-98 -137 -98 -276h-41q0 149 114.5 400.5t114.5 330.5q0 115 -59.5 197.5t-169.5 82.5q-71 0 -131 -32.5t-60 -96.5q0 -35 31 -90.5t31 -81.5q0 -31 -23 -58.5t-57 -27.5 q-52 0 -81.5 49.5t-29.5 104.5zM320 82q0 47 32 79t78 32q48 0 80 -31q31 -34 31 -80q0 -47 -32 -79t-79 -32q-45 0 -77 33q-33 32 -33 78z" />
<glyph horiz-adv-x="410" d="M164 180h82v-623h-82v623zM164 801v621h82v-621h-82z" />
<glyph horiz-adv-x="570" d="M164 -10v1432h82v-1432h-82zM375 -10v1432h82v-1432h-82z" />
<glyph horiz-adv-x="682" d="M236 1118l104 347h223l-292 -347h-35z" />
<glyph horiz-adv-x="895" d="M92 1555v75h637v-75h-274v-596h-80v596h-283z" />
<glyph />
<glyph />
<glyph unicode="&#xa1;" horiz-adv-x="570" d="M185 0v209h198v-209h-198zM185 985v486h198v-486l-49 -635h-100z" />
<glyph unicode="&#xa2;" horiz-adv-x="2" d="M24 -309q0 45 31 75.5t77 30.5q44 0 75.5 -30.5t31.5 -75.5q0 -43 -32 -76t-75 -33q-45 0 -76.5 31.5t-31.5 77.5zM327 -309q0 45 32 75.5t78 30.5q44 0 74.5 -30.5t30.5 -75.5q0 -46 -30.5 -77.5t-74.5 -31.5q-46 0 -78 33t-32 76z" />
<glyph unicode="&#xa3;" />
<glyph unicode="&#xa4;" />
<glyph unicode="&#xa5;" horiz-adv-x="717" d="M113 678q0 101 73 175.5t177 74.5q102 0 178 -74q37 -36 55.5 -79t18.5 -97q0 -104 -74 -178q-37 -37 -80 -55.5t-98 -18.5q-101 0 -178 74q-72 75 -72 178z" />
<glyph unicode="&#xa6;" horiz-adv-x="928" d="M-15 981q0 111 44 180q60 98 155 146.5t252 48.5h496v-55h-133v-1744h-74v1744h-186v-1744h-72v1045q-91 0 -163 13.5t-124 36.5q-95 45 -143 131q-25 41 -38.5 90t-13.5 108z" />
<glyph unicode="&#xa7;" />
<glyph unicode="&#xa8;" />
<glyph unicode="&#xa9;" />
<glyph unicode="&#xaa;" />
<glyph unicode="&#xab;" />
<glyph unicode="&#xac;" />
<glyph unicode="&#xad;" />
<glyph unicode="&#xae;" />
<glyph unicode="&#xaf;" />
<glyph unicode="&#xb0;" />
<glyph unicode="&#xb1;" />
<glyph unicode="&#xb2;" />
<glyph unicode="&#xb3;" />
<glyph unicode="&#xb4;" />
<glyph unicode="&#xb5;" />
<glyph unicode="&#xb6;" horiz-adv-x="928" d="M-15 981q0 111 44 180q60 98 155 146.5t252 48.5h496v-55h-133v-1744h-74v1744h-186v-1744h-72v1045q-91 0 -163 13.5t-124 36.5q-95 45 -143 131q-25 41 -38.5 90t-13.5 108z" />
<glyph unicode="&#xb8;" />
<glyph unicode="&#xb9;" />
<glyph unicode="&#xba;" horiz-adv-x="2" d="M296 -320q0 44 32.5 75.5t78.5 31.5q42 0 73 -30t31 -77q0 -45 -30.5 -76.5t-73.5 -31.5q-46 0 -78.5 32t-32.5 76zM296 -642q0 44 32.5 75.5t78.5 31.5q42 0 73 -30t31 -77q0 -45 -30.5 -76.5t-73.5 -31.5q-46 0 -78.5 32t-32.5 76z" />
<glyph unicode="&#xbb;" />
<glyph unicode="&#xbc;" />
<glyph unicode="&#xbd;" />
<glyph unicode="&#xbe;" />
<glyph unicode="&#xbf;" />
<glyph unicode="&#xc0;" />
<glyph unicode="&#xc1;" horiz-adv-x="2" d="M-84 -197h371v-131h-371v131zM437 -276q0 39 28 67t67 28t67 -28t28 -67q0 -40 -27 -68t-68 -28q-39 0 -67 28t-28 68zM437 -600q0 39 28 67t67 28t67 -28t28 -67q0 -40 -27 -68t-68 -28q-39 0 -67 28t-28 68z" />
<glyph unicode="&#xc2;" />
<glyph unicode="&#xc3;" />
<glyph unicode="&#xc4;" />
<glyph unicode="&#xc5;" horiz-adv-x="2" d="M-149 -316q0 45 31.5 75t78.5 30q43 0 74 -29q31 -31 31 -76t-30.5 -76.5t-74.5 -31.5q-46 0 -78 32t-32 76zM0 -570q0 45 32 75t79 30q43 0 73 -30q31 -28 31 -75q0 -45 -31.5 -77.5t-72.5 -32.5q-45 0 -78 33t-33 77zM164 -307q0 44 32 76q32 30 79 30q30 0 52 -14 q25 -14 38.5 -38.5t13.5 -53.5q0 -46 -30.5 -77.5t-73.5 -31.5q-44 0 -77.5 32t-33.5 77zM509 -312q0 39 28 67t67 28t67 -28t28 -67q0 -40 -27 -68t-68 -28q-39 0 -67 28t-28 68zM509 -636q0 39 28 67t67 28t67 -28t28 -67q0 -40 -27 -68t-68 -28q-39 0 -67 28t-28 68z" />
<glyph unicode="&#xc6;" horiz-adv-x="2" d="M-61 -199h461v-131h-170v-201h-131v201h-160v131zM557 -270q0 39 28 67t67 28t67 -28t28 -67q0 -40 -27 -68t-68 -28q-39 0 -67 28t-28 68zM557 -594q0 39 28 67t67 28t67 -28t28 -67q0 -40 -27 -68t-68 -28q-39 0 -67 28t-28 68z" />
<glyph unicode="&#xc7;" />
<glyph unicode="&#xc8;" />
<glyph unicode="&#xc9;" horiz-adv-x="2" d="M259 -303q0 45 31.5 75.5t77.5 30.5q43 0 74.5 -30t31.5 -76q0 -44 -32 -76.5t-74 -32.5q-45 0 -77 32.5t-32 76.5z" />
<glyph unicode="&#xca;" />
<glyph unicode="&#xcb;" />
<glyph unicode="&#xcc;" />
<glyph unicode="&#xcd;" />
<glyph unicode="&#xce;" />
<glyph unicode="&#xcf;" />
<glyph unicode="&#xd0;" />
<glyph unicode="&#xd1;" />
<glyph unicode="&#xd2;" />
<glyph unicode="&#xd3;" />
<glyph unicode="&#xd4;" />
<glyph unicode="&#xd5;" />
<glyph unicode="&#xd6;" />
<glyph unicode="&#xd7;" />
<glyph unicode="&#xd8;" />
<glyph unicode="&#xd9;" />
<glyph unicode="&#xda;" />
<glyph unicode="&#xdb;" />
<glyph unicode="&#xdc;" />
<glyph unicode="&#xdd;" />
<glyph unicode="&#xde;" horiz-adv-x="1073" d="M88 1057q0 56 21 103.5t57 64.5q0 -17 26 -29t46 -12h729q29 0 49.5 -23t20.5 -53v-127q0 -22 -23 -41.5t-47 -19.5v-1447h-113l-2 1447h-725q-39 45 -39 137zM208 -26h396v-131h-134v-199h-131v199h-131v131zM282 543q0 45 31.5 75.5t77.5 30.5q43 0 74.5 -30t31.5 -76 q0 -44 -32 -76.5t-74 -32.5q-45 0 -77 32.5t-32 76.5z" />
<glyph unicode="&#xdf;" />
<glyph unicode="&#xe0;" />
<glyph unicode="&#xe1;" horiz-adv-x="2" d="M106 -201h393v-133h-393v133z" />
<glyph unicode="&#xe2;" />
<glyph unicode="&#xe3;" />
<glyph unicode="&#xe4;" />
<glyph unicode="&#xe5;" horiz-adv-x="2" d="M37 -307q0 44 32 76q33 30 79 30q30 0 52 -14q25 -14 38.5 -38.5t13.5 -53.5q0 -46 -30.5 -77.5t-73.5 -31.5q-44 0 -77.5 32t-33.5 77zM238 -565q0 44 30.5 74t78.5 30q42 0 74 -29q30 -30 30 -75q0 -46 -30.5 -77.5t-73.5 -31.5q-46 0 -77.5 32t-31.5 77zM427 -301 q0 45 30.5 75.5t77.5 30.5q44 0 74.5 -30.5t30.5 -75.5q0 -42 -31 -75.5t-74 -33.5q-44 0 -76 32t-32 77z" />
<glyph unicode="&#xe6;" horiz-adv-x="2" d="M97 -199h461v-131h-170v-250h-131v250h-160v131z" />
<glyph unicode="&#xe7;" />
<glyph unicode="&#xe8;" />
<glyph unicode="&#xe9;" horiz-adv-x="2" d="M244 -316q0 45 32 76t77 31q44 0 75 -30.5t31 -76.5q0 -43 -32 -75.5t-74 -32.5q-45 0 -77 32.5t-32 75.5z" />
<glyph unicode="&#xea;" />
<glyph unicode="&#xeb;" />
<glyph unicode="&#xec;" />
<glyph unicode="&#xed;" />
<glyph unicode="&#xee;" />
<glyph unicode="&#xef;" horiz-adv-x="131" d="M-31 1344q0 44 32 74t79 30q42 0 73.5 -29.5t31.5 -74.5q0 -43 -32 -77t-73 -34q-45 0 -78 33t-33 78z" />
<glyph unicode="&#xf0;" />
<glyph unicode="&#xf1;" />
<glyph unicode="&#xf2;" />
<glyph unicode="&#xf3;" />
<glyph unicode="&#xf4;" />
<glyph unicode="&#xf5;" horiz-adv-x="2" d="M-11 -297q0 44 31.5 74t77.5 30q44 0 74 -29.5t30 -74.5q0 -46 -30.5 -78.5t-73.5 -32.5q-45 0 -77 33.5t-32 77.5zM202 -461q0 44 32 76q32 30 79 30q44 0 74 -30t30 -76q0 -44 -30.5 -76.5t-73.5 -32.5q-45 0 -78 33t-33 76zM432 -641q0 45 30 75q32 29 78 29 q45 0 75 -29t30 -75t-31.5 -78.5t-73.5 -32.5q-44 0 -76 32.5t-32 78.5z" />
<glyph unicode="&#xf6;" />
<glyph unicode="&#xf7;" />
<glyph unicode="&#xf8;" />
<glyph unicode="&#xf9;" />
<glyph unicode="&#xfa;" />
<glyph unicode="&#xfb;" />
<glyph unicode="&#xfc;" />
<glyph unicode="&#xfd;" />
<glyph unicode="&#xfe;" />
<glyph unicode="&#xff;" />
<glyph unicode="&#x152;" horiz-adv-x="410" d="M164 801v621h82v-621h-82z" />
<glyph unicode="&#x153;" />
<glyph unicode="&#x178;" />
<glyph unicode="&#x2c6;" horiz-adv-x="858" d="M168 -338v1807h627v-70h-178l-2 -76v-162l-2 -233v-174.5t0.5 -171t1.5 -168.5v-416q0 -60 1 -150.5t1 -120.5h178v-65h-627zM336 -127q0 -82 29 -109q13 -11 86 -23t102 -12v1670q-1 0 -1 1q-7 3 -15 3q-42 0 -103 -12t-67 -29l-21 -37q-8 -21 -8 -69v-39l2 -41v-1254 v-11q0 -6 -2 -16z" />
<glyph unicode="&#x2dc;" horiz-adv-x="639" d="M123 1538h49l367 -651h-60z" />
<glyph unicode="&#x2000;" horiz-adv-x="836" />
<glyph unicode="&#x2001;" horiz-adv-x="1673" />
<glyph unicode="&#x2002;" horiz-adv-x="836" />
<glyph unicode="&#x2003;" horiz-adv-x="1673" />
<glyph unicode="&#x2004;" horiz-adv-x="557" />
<glyph unicode="&#x2005;" horiz-adv-x="418" />
<glyph unicode="&#x2006;" horiz-adv-x="278" />
<glyph unicode="&#x2007;" horiz-adv-x="278" />
<glyph unicode="&#x2008;" horiz-adv-x="209" />
<glyph unicode="&#x2009;" horiz-adv-x="334" />
<glyph unicode="&#x200a;" horiz-adv-x="92" />
<glyph unicode="&#x2010;" horiz-adv-x="879" d="M86 985l66 131h657l-65 -131h-658z" />
<glyph unicode="&#x2011;" horiz-adv-x="879" d="M86 985l66 131h657l-65 -131h-658z" />
<glyph unicode="&#x2012;" horiz-adv-x="879" d="M86 985l66 131h657l-65 -131h-658z" />
<glyph unicode="&#x2013;" horiz-adv-x="959" d="M226 1475q0 20 6 55l10 55h131h13.5t22.5 -3.5t38 -12.5q40 -18 41 -29l24 -41q25 -41 25 -65q0 -10 -0.5 -21t-3.5 -30l-15 -50q-6 -23 -30 -61l-21 -43l-4 -39l-4 -63q6 -39 57 -90l33 -15q30 -8 49 -8q16 0 37 6l135 33l17 -123l-148 -45l-123 8q-38 13 -65 37l-37 25 q-5 6 -8 10q-14 17 -23 31q-29 38 -37 41q-6 0 -6 49q0 46 -5 48t-7 9q0 32 29 94l34 86l17 35l8 12l-6 17l-8 39q-1 15 -21.5 25.5t-36.5 15.5q-17 -2 -47 -3t-67 -1q-2 3 -2.5 6t-1.5 6z" />
<glyph unicode="&#x2014;" horiz-adv-x="965" d="M150 910v669h665v-669h-665zM215 977h533v533h-533v-533z" />
<glyph unicode="&#x2018;" horiz-adv-x="598" d="M80 967l4 672h350v-76h-274v-596h-80z" />
<glyph unicode="&#x2019;" horiz-adv-x="1004" d="M234 1278q0 84 63 158q74 63 160 63q83 0 158 -63q63 -69 63 -158q0 -83 -63 -155q-63 -66 -158 -66q-94 0 -158.5 62t-64.5 159zM295 1278q0 -61 47 -119q51 -36 113 -45q56 0 115 45q47 56 47 119q0 70 -47 111q-41 47 -115 47q-63 0 -113 -47q-47 -38 -47 -111z" />
<glyph unicode="&#x201a;" horiz-adv-x="1024" d="M146 840q0 79 157.5 118.5t169.5 49.5q-13 10 -170 49t-157 119q0 30 22.5 50.5t52.5 20.5q55 0 123 -63l150 -139q0 57 -32 147t-32 121q0 45 20.5 77t61.5 32t62 -31q20 -34 20 -78q0 -26 -31.5 -124t-31.5 -144q38 17 123.5 109.5t148.5 92.5q32 0 54 -20t22 -51 q0 -80 -157 -119t-171 -49q13 -10 170.5 -49t157.5 -119q0 -30 -23 -51t-53 -21q-66 0 -152 94t-120 109q0 -30 7 -63t25 -82q31 -92 31 -123q0 -46 -20.5 -77.5t-61.5 -31.5q-40 0 -61 33q-21 30 -21 76q0 24 33 123q15 49 23 85t8 60q-38 -17 -123.5 -110t-149.5 -93 q-29 0 -52 20t-23 52z" />
<glyph unicode="&#x201c;" horiz-adv-x="547" d="M84 1454l309 176l35 -73l-268 -154v-479h-74z" />
<glyph unicode="&#x201d;" horiz-adv-x="496" d="M31 1553l35 73l309 -176l2 -530h-78v479z" />
<glyph unicode="&#x201e;" horiz-adv-x="682" d="M226 1243q0 60 28.5 102t85.5 42q56 0 85.5 -43.5t29.5 -100.5l-94 -884h-41l-62 567q-32 302 -32 317zM230 82q0 48 32.5 79.5t77.5 31.5q48 0 80 -31q31 -34 31 -80q0 -47 -32 -79t-79 -32q-46 0 -78 32.5t-32 78.5z" />
<glyph unicode="&#x2022;" horiz-adv-x="959" d="M148 930l16 123l135 -33q18 -6 37 -6q20 0 48 8t34 15q51 51 57 90v34l-4 29l-4 39q0 6 -22 43q-21 32 -31 59l-12 50q-4 23 -4 53q0 25 24 63l25 43q0 11 40 28t74 17h131l11 -53l6 -57v-8l-4 -4h-17h-14h-12q-45 0 -72 4l-35 -15q-17 -9 -21 -29.5t-5.5 -25t-6.5 -12.5 l-4 -15l7 -6l16 -41l37 -86q28 -62 28 -94l-2 -4l-2 -4q-8 0 -8 -49t-8 -49q-6 -6 -9 -10q-10 -12 -24 -31q-26 -41 -33 -41l-34 -25q-13 -10 -30.5 -19.5t-37.5 -17.5l-123 -8z" />
<glyph unicode="&#x2026;" horiz-adv-x="410" d="M164 -443v1865h82v-1865h-82z" />
<glyph unicode="&#x202f;" horiz-adv-x="334" />
<glyph unicode="&#x2039;" horiz-adv-x="1024" d="M156 506q0 103 61.5 194t159.5 148q-50 55 -87.5 121t-37.5 131q0 123 82 205t205 82q99 0 176 -62q37 -31 56.5 -71.5t19.5 -89.5q0 -34 -23 -62q-19 -25 -55 -25q-16 0 -28.5 4t-28.5 17q-23 23 -23 57l6 43l8 54q0 45 -32 67q-29 23 -76 27q-69 0 -126.5 -50 t-57.5 -120q0 -105 127 -213l253 -207q134 -129 134 -274q0 -100 -62 -191.5t-160 -146.5q56 -59 91 -121q14 -27 24 -60q4 -17 6 -32.5t2 -35.5q0 -124 -80 -208.5t-204 -84.5q-50 0 -95 17q-41 14 -79 49q-76 63 -76 162q0 35 20 61q22 25 58 25t54.5 -24.5t18.5 -63.5 v-12q0 -7 -2 -19l-6 -25l-8 -51q0 -36 40.5 -57t82.5 -21q63 0 118.5 50.5t55.5 113.5q0 103 -129 216l-125 108l-125 107q-133 130 -133 268zM258 592q0 -115 133 -235l224 -185q60 34 105.5 91.5t45.5 123.5q0 119 -133 242l-223 188q-67 -40 -109.5 -96t-42.5 -129z" />
<glyph unicode="&#x203a;" horiz-adv-x="1706" d="M72 1018q0 106 40 194.5t109 131.5q36 22 71 32.5t73 10.5q134 0 208 -111.5t74 -257.5q0 -173 -84 -268.5t-200 -95.5q-80 0 -145.5 43.5t-105.5 130.5t-40 190zM232 1020q0 -141 22 -213q17 -55 51 -84q23 -18 54 -18q46 0 82 51q49 80 49 258q0 189 -49 266 q-32 51 -80 51q-52 0 -90.5 -60.5t-38.5 -250.5zM316 -56l987 1443h90l-989 -1443h-88zM1059 307q0 105 40 193t108.5 131t138.5 43q71 0 141 -44.5t111 -131.5q37 -88 37 -191q0 -175 -85 -269t-200 -94q-74 0 -142.5 45.5t-108.5 128.5t-40 189zM1219 301q0 -178 47 -250 q33 -51 82 -51q44 0 82 56q47 74 47 249q0 188 -47 265q-33 51 -82 51t-84 -56q-45 -69 -45 -264z" />
<glyph unicode="&#x205f;" horiz-adv-x="418" />
<glyph unicode="&#x2122;" horiz-adv-x="570" d="M174 82q0 46 31 78q28 28 80 33q45 0 78 -33q17 -17 24 -35q9 -18 9 -43q0 -45 -32 -78t-79 -33q-46 0 -80 31q-31 33 -31 80zM174 834q0 45 30.5 77.5t80.5 32.5q46 0 78.5 -32t32.5 -78q0 -47 -32 -79t-79 -32t-78 31q-33 30 -33 80z" />
<glyph unicode="&#xe000;" horiz-adv-x="1230" d="M0 0v1230h1230v-1230h-1230z" />
</font>
</defs>
</svg>
