<?xml version="1.0" standalone="no"?>
<!DOCTYPE svg PUBLIC "-//W3C//DTD SVG 1.1//EN" "http://www.w3.org/Graphics/SVG/1.1/DTD/svg11.dtd" >
<svg xmlns="http://www.w3.org/2000/svg">
<metadata></metadata>
<defs>
<font id="webfontregular" horiz-adv-x="1124" >
<font-face units-per-em="2048" ascent="1638" descent="-410" />
<missing-glyph horiz-adv-x="512" />
<glyph horiz-adv-x="0" />
<glyph unicode="&#xd;" horiz-adv-x="250" />
<glyph horiz-adv-x="0" />
<glyph horiz-adv-x="0" />
<glyph horiz-adv-x="0" />
<glyph unicode="&#x9;" horiz-adv-x="512" />
<glyph unicode=" "  horiz-adv-x="512" />
<glyph unicode="&#x09;" horiz-adv-x="512" />
<glyph unicode="&#xa0;" horiz-adv-x="512" />
<glyph unicode="!" horiz-adv-x="682" d="M228 1244q0 67 33 105t80 38q48 0 80.5 -38t32.5 -114q0 -25 -5 -67l-89 -809h-38l-88 811q-6 53 -6 74zM230 83q0 46 32.5 78t77.5 32q46 0 78.5 -32t32.5 -78t-32.5 -78.5t-78.5 -32.5q-45 0 -77.5 32.5t-32.5 78.5z" />
<glyph unicode="&#x22;" horiz-adv-x="1460" d="M97 1356h104l171 -397h720l169 397h100l-579 -1356h-104zM414 860l319 -738l317 738h-636z" />
<glyph unicode="#" horiz-adv-x="1024" d="M37 427v82h187l69 343h-256v80h275l91 455h83l-91 -455h337l97 455h83l-95 -455h170v-80h-185l-70 -343h255v-82h-272l-93 -455h-81l91 455h-339l-95 -455h-83l93 455h-171zM308 509h339l72 343h-341z" />
<glyph unicode="$" d="M81 0v94h770v566h-686v98h686v497h-770v101h867v-1356h-867z" />
<glyph unicode="%" horiz-adv-x="1706" d="M71 1018q0 105 40.5 193.5t109.5 132t139 43.5q140 0 213.5 -113.5t73.5 -255.5q0 -174 -84 -269t-202 -95q-135 0 -212.5 106.5t-77.5 257.5zM230 1020q0 -140 22 -212q17 -56 53 -86q21 -18 52 -18q48 0 82 52q50 77 50 257q0 190 -49 267q-32 51 -79 51q-51 0 -91 -60 t-40 -251zM314 -56l988 1443h89l-988 -1443h-89zM1059 308q0 104 39 191.5t107.5 130.5t143.5 43q67 0 137.5 -45t109 -131t38.5 -189q0 -177 -85 -270.5t-201 -93.5q-115 0 -202 97.5t-87 266.5zM1218 302q0 -180 46 -251q34 -51 82 -51q46 0 82 55q48 73 48 251 q0 188 -48 263q-33 51 -80 51q-50 0 -85 -53q-45 -70 -45 -265z" />
<glyph unicode="&#x26;" horiz-adv-x="1593" d="M72 268q0 120 87 240.5t327 249.5q-47 104 -64 170.5t-17 126.5q0 172 127 263q98 69 222 69q119 0 194 -70.5t75 -173.5q0 -106 -82 -197q-64 -69 -247 -164q127 -226 265 -414q176 210 176 352q0 48 -31 85q-21 26 -62 31v37h420v-37q-87 -7 -128.5 -38.5 t-129.5 -190.5t-199 -297q90 -104 160 -145.5t140 -41.5q69 0 117.5 37.5t68.5 110.5l37 -27q-37 -141 -119 -208t-191 -67q-83 0 -167.5 44.5t-183.5 150.5q-124 -109 -223.5 -152t-212.5 -43q-166 0 -262.5 88t-96.5 211zM279 359q0 -106 68.5 -187.5t187.5 -81.5 q62 0 120.5 25t159.5 107q-132 180 -183.5 263t-111.5 206q-241 -138 -241 -332zM576 1131q0 -46 17 -107.5t67 -176.5q247 117 247 299q0 74 -44.5 121t-111.5 47q-73 0 -124 -53.5t-51 -129.5z" />
<glyph unicode="'" horiz-adv-x="899" d="M58 13v60q119 -37 205 -37q88 0 176 48.5t135 127t62 203.5h-461v73h461q-25 187 -137 286.5t-281 99.5q-45 0 -107 -15v57q107 28 211 28q137 0 256.5 -58.5t184.5 -166t65 -246.5q0 -217 -147.5 -361t-382.5 -144q-53 0 -97.5 8t-142.5 37z" />
<glyph unicode="(" horiz-adv-x="682" d="M84 490q0 311 153 566.5t399 365.5v-42q-123 -68 -202 -186t-118 -299.5t-39 -378.5q0 -223 36 -403t110 -298.5t213 -213.5v-43q-261 130 -406.5 381.5t-145.5 550.5z" />
<glyph unicode=")" horiz-adv-x="682" d="M45 -399q124 68 203 186t117.5 299t38.5 379q0 222 -35.5 402.5t-110 299t-213.5 213.5v42q261 -129 406.5 -380.5t145.5 -550.5q0 -311 -153 -567t-399 -366v43z" />
<glyph unicode="*" horiz-adv-x="1024" d="M145 510q0 25 20.5 52.5t61.5 45.5q27 12 123 32q62 13 121 38q-54 27 -129 42q-123 26 -152 47q-45 33 -45 80q0 27 22.5 49.5t52.5 22.5q33 0 70 -21t92 -84.5t112 -98.5q-4 69 -28 137q-35 99 -35 135q0 52 25 79t61 27q31 0 54 -27t23 -78q0 -44 -26.5 -124.5 t-32.5 -148.5q55 35 99 85q68 79 101 98t67 19q32 0 55 -22.5t23 -53.5q0 -37 -33 -66t-165 -58q-77 -17 -128 -39q52 -27 127 -41q121 -22 158.5 -55t37.5 -72q0 -30 -22.5 -52t-52.5 -22t-66.5 21t-98.5 94q-41 49 -102 92q2 -57 23 -124q36 -118 36 -160q0 -41 -24 -68.5 t-51 -27.5q-37 0 -67 29q-21 21 -21 67q0 48 23 115.5t29 93t11 75.5q-59 -39 -103 -87q-73 -82 -110 -104q-26 -16 -54 -16q-34 0 -58 23t-24 51z" />
<glyph unicode="+" d="M37 475v97h477v478h98v-478h475v-97h-475v-475h-98v475h-477z" />
<glyph unicode="," horiz-adv-x="512" d="M110 81q0 49 37.5 84t91.5 35q66 0 117.5 -57.5t51.5 -152.5q0 -103 -71.5 -191.5t-226.5 -139.5v44q103 34 159.5 105.5t56.5 150.5q0 22 -8 32t-20 10q-6 0 -43 -20q-18 -9 -40 -9q-47 0 -76 29t-29 80z" />
<glyph unicode="-" d="M37 477v99h1050v-99h-1050z" />
<glyph unicode="." horiz-adv-x="512" d="M145 83q0 46 32.5 78.5t78.5 32.5t78.5 -32.5t32.5 -78.5q0 -47 -32.5 -79.5t-78.5 -32.5t-78.5 32.5t-32.5 79.5z" />
<glyph unicode="/" horiz-adv-x="569" d="M-1 -28l491 1450h80l-491 -1450h-80z" />
<glyph unicode="0" horiz-adv-x="1024" d="M74 667q0 157 37 300.5t115 248.5q59 80 136 124t153 44q157 0 281 -159q155 -198 155 -536q0 -236 -68 -402t-173.5 -240.5t-203.5 -74.5q-194 0 -323 230q-109 194 -109 465zM270 664q0 -375 95 -531q58 -94 144 -94q54 0 112 49t88 163q46 172 46 491q0 227 -48 382 q-36 113 -93 161q-41 33 -99 33q-68 0 -121 -61q-71 -83 -97.5 -259.5t-26.5 -333.5z" />
<glyph unicode="1" horiz-adv-x="1024" d="M240 1223l330 161h33v-1146q0 -113 9.5 -141t39.5 -43t122 -17v-37h-510v37q94 2 124 16.5t42 45.5q8 22 8 141v731q0 148 -10 191q-7 31 -26 46t-45 15q-36 0 -102 -31z" />
<glyph unicode="2" horiz-adv-x="1024" d="M44 0v42q413 373 552 607q89 150 89 287q0 129 -79 212t-189 83q-100 0 -179.5 -58.5t-117.5 -171.5h-37q25 185 129 284t258 99q165 0 275.5 -106t110.5 -252q0 -102 -50 -208q-74 -160 -242 -343q-245 -268 -307 -324h354q146 0 200.5 24t90.5 86h37l-95 -261h-800z " />
<glyph unicode="3" horiz-adv-x="1024" d="M83 82q0 30 24 52t57 22q24 0 50 -8q17 -5 76.5 -36t82.5 -38q39 -10 80 -10q102 0 177.5 79t75.5 190q0 70 -29 136.5t-61 97.5q-43 40 -118.5 73t-154.5 33h-32v30q79 10 158.5 57t115.5 113t36 145q0 103 -64.5 166.5t-161.5 63.5q-154 0 -258 -166l-33 16 q58 137 146.5 211.5t220.5 74.5q163 0 250 -106q65 -79 65 -168q0 -149 -185 -307q125 -49 189 -140.5t64 -215.5q0 -169 -104 -297q-145 -178 -436 -178q-131 0 -181 34.5t-50 75.5z" />
<glyph unicode="4" horiz-adv-x="1024" d="M32 358v128l629 898h110v-884h182v-142h-182v-358h-165v358h-574zM130 500h476v673z" />
<glyph unicode="5" horiz-adv-x="1024" d="M98 106q0 30 22.5 52t58.5 22q26 0 45.5 -8t66.5 -41q75 -52 151 -52q118 0 206.5 88.5t88.5 215.5q0 101 -48.5 183.5t-130 142t-173.5 87t-242 33.5l260 527h485l-78 -170h-407l-89 -182q264 -38 408.5 -186t144.5 -332q0 -131 -71.5 -253t-201.5 -191.5t-264 -69.5 q-120 0 -176 42t-56 92z" />
<glyph unicode="6" horiz-adv-x="1024" d="M89 531q0 179 72 343.5t207.5 292.5t260 172.5t233.5 44.5h57v-37q-131 -13 -214.5 -52.5t-165 -120.5t-135.5 -180.5t-89 -236.5q72 50 144 74.5t144 24.5q139 0 241 -112t102 -290q0 -171 -113.5 -326.5t-317.5 -155.5q-139 0 -237 94q-189 179 -189 465zM280 472 q0 -172 74 -306t190 -134q87 0 155.5 82.5t68.5 234.5q0 170 -68 295t-192 125q-39 0 -82.5 -16t-127.5 -69q-18 -136 -18 -212z" />
<glyph unicode="7" horiz-adv-x="1024" d="M76 1035l130 321h727v-38l-452 -1346h-112l405 1221h-373q-113 0 -161 -27q-84 -46 -135 -142z" />
<glyph unicode="8" horiz-adv-x="1024" d="M124 307q0 91 61 180t208 196q-161 132 -207.5 212t-46.5 166q0 132 102 227.5t271 95.5q164 0 264 -89t100 -203q0 -76 -54 -155t-225 -186q176 -138 233 -214q76 -104 76 -217q0 -144 -109 -246t-286 -102q-193 0 -290 109.5t-97 225.5zM277 314q0 -129 70.5 -206.5 t179.5 -77.5q108 0 173 61t65 149q0 71 -38 128q-71 106 -287 277q-83 -70 -123 -152.5t-40 -178.5zM284 1129q0 -52 26.5 -104t75.5 -99l164 -136q120 108 152 170.5t32 141.5q0 105 -59 164.5t-161 59.5t-166 -59t-64 -138z" />
<glyph unicode="9" horiz-adv-x="1024" d="M81 898q0 210 126.5 348t296.5 138q167 0 285 -138q147 -171 147 -422q0 -226 -110.5 -421.5t-308.5 -324.5q-162 -106 -352 -106h-57v37q130 2 242 60.5t216.5 204.5t145.5 321q-78 -50 -149 -75.5t-135 -25.5q-143 0 -245 111t-102 293zM259 1000q0 -210 90 -329 q64 -86 159 -86q46 0 109 22t111 62q18 130 18 204q0 101 -33 213.5t-94 172.5t-137 60q-89 0 -156 -80t-67 -239z" />
<glyph unicode=":" horiz-adv-x="569" d="M172 83q0 46 32.5 78.5t78.5 32.5t78.5 -32.5t32.5 -78.5t-32.5 -78.5t-78.5 -32.5t-78.5 32.5t-32.5 78.5zM174 833q0 46 32.5 78.5t78.5 32.5q45 0 78 -32.5t33 -78.5t-33 -78.5t-78 -32.5q-46 0 -78.5 32.5t-32.5 78.5z" />
<glyph unicode=";" horiz-adv-x="569" d="M139 81q0 49 37.5 84t91.5 35q66 0 117.5 -57.5t51.5 -152.5q0 -103 -71.5 -191.5t-226.5 -139.5v44q103 34 159.5 105.5t56.5 150.5q0 22 -8 32t-20 10q-6 0 -43 -20q-18 -9 -40 -9q-47 0 -76 29t-29 80zM167 834q0 45 32.5 77t78.5 32q48 0 80.5 -32t32.5 -77 t-32.5 -77.5t-79.5 -32.5q-46 0 -79 32.5t-33 77.5z" />
<glyph unicode="&#x3c;" d="M60 498v51l1006 501v-110l-842 -415l842 -419v-106z" />
<glyph unicode="=" d="M37 287v99h1050v-99h-1050zM37 662v97h1050v-97h-1050z" />
<glyph unicode="&#x3e;" d="M60 0v110l842 415l-842 418v107l1006 -498v-51z" />
<glyph unicode="?" horiz-adv-x="909" d="M88 1101q0 113 97 199.5t264 86.5q206 0 303 -120q71 -89 71 -196q0 -73 -32.5 -149.5t-123.5 -180.5q-145 -164 -177.5 -232.5t-39.5 -188.5h-41q7 126 31.5 208.5t101.5 229.5q60 113 78 173.5t18 121.5q0 128 -67.5 203t-165.5 75q-87 0 -137 -41t-50 -89 q0 -36 30 -90t30 -82q0 -35 -23 -59.5t-55 -24.5q-44 0 -78 41.5t-34 114.5zM324 84q0 47 32.5 79.5t79.5 32.5q46 0 78.5 -32.5t32.5 -79.5q0 -46 -32.5 -78.5t-78.5 -32.5q-47 0 -79.5 32.5t-32.5 78.5z" />
<glyph unicode="@" d="M37 0v99h1050v-99h-1050zM37 375v97h1050v-97h-1050zM52 723q19 162 97 242t176 80q50 0 122 -24q54 -18 210 -102q118 -62 192 -62q65 0 106 40q54 52 68 141h49q-20 -163 -98 -242t-183 -79q-49 0 -112.5 21.5t-197 96.5t-205.5 75q-66 0 -115.5 -47.5t-63.5 -139.5 h-45z" />
<glyph unicode="A" horiz-adv-x="1479" d="M20 0v37q85 15 110 39q51 48 113 195l477 1116h35l472 -1129q56 -135 103 -175.5t130 -45.5v-37h-535v37q83 4 110 27t27 69q0 36 -39 128l-82 193h-525l-92 -214q-34 -79 -34 -111q0 -38 29 -61.5t128 -30.5v-37h-427zM447 528h466l-230 548z" />
<glyph unicode="B" horiz-adv-x="1366" d="M34 0v37h51q85 0 122 54q23 35 23 149v876q0 126 -29 159q-39 44 -116 44h-51v37h586q164 0 263 -24q150 -36 229 -127.5t79 -210.5q0 -102 -62.5 -182.5t-182.5 -119.5q141 -30 211 -96q97 -92 97 -224q0 -102 -64 -194.5t-175.5 -135t-340.5 -42.5h-640zM422 98 q116 -27 226 -27q184 0 279 81.5t95 201.5q0 78 -42.5 151.5t-139.5 115.5t-248 42q-117 0 -170 -9v-556zM422 746q75 -14 186 -14q148 0 222 31.5t113 96.5t39 142q0 119 -97 203t-284 84q-99 0 -179 -22v-521z" />
<glyph unicode="C" horiz-adv-x="1479" d="M18 0v37q51 5 88 21q62 26 118 70t128 135l320 404l-267 391q-109 159 -185 208.5t-175 52.5v37h627v-37q-80 -3 -109.5 -26t-29.5 -52q0 -36 48 -107l208 -311l241 305q42 54 51.5 74t9.5 40q0 22 -12 38q-15 21 -37.5 29.5t-95.5 9.5v37h481v-37q-57 -3 -93 -18 q-54 -23 -99 -62t-127 -144l-269 -344l291 -434q121 -180 179.5 -227.5t148.5 -52.5v-37h-582v37q58 1 86 12q22 9 35 28t13 38q0 22 -10 46q-7 16 -54 87l-230 348l-284 -364q-45 -58 -54 -77.5t-9 -40.5q0 -32 27 -53t103 -24v-37h-481z" />
<glyph unicode="D" horiz-adv-x="1253" d="M26 0l628 1387l572 -1387h-1200zM151 82h839l-399 967z" />
<glyph unicode="E" horiz-adv-x="1251" d="M39 0v37h48q84 0 122 49q24 31 24 153v881q0 129 -26 159q-36 40 -120 40h-48v37h1043l17 -297h-39q-21 107 -46.5 147t-75.5 61q-40 15 -141 15h-372v-536h299q115 0 154 35q52 46 58 162h37v-472h-37q-14 99 -28 127q-18 35 -59 55t-127 20h-297v-447q0 -90 8 -109.5 t28 -31t76 -11.5h230q115 0 167 16t100 63q62 62 127 187h40l-116 -340h-1046z" />
<glyph unicode="F" horiz-adv-x="1563" d="M72 678q0 130 56 232q44 79 117 133.5t154 79.5q111 34 287 41q-1 86 -30 114q-42 41 -115 41h-54v37h588v-37h-51q-73 0 -108.5 -35.5t-38.5 -118.5q223 -14 346 -66t195 -163.5t72 -257.5q0 -142 -68.5 -252.5t-199 -168t-345.5 -65.5q3 -87 32 -114q42 -40 115 -40 l51 -1v-37h-588v37h54q74 0 109.5 36t35.5 119q-214 9 -339 60t-200 163.5t-75 262.5zM278 678q0 -188 93 -305t314 -124v857q-143 -5 -230 -54t-132 -151t-45 -223zM877 249q197 2 301 109.5t104 319.5q0 211 -104 318.5t-301 109.5v-857z" />
<glyph unicode="G" horiz-adv-x="1235" d="M35 0v37h35q88 0 125.5 36t37.5 119v972q0 83 -37 119t-126 36h-35v37h1135l11 -325h-37q-11 131 -71 185t-209 54h-436v-1075q0 -86 36.5 -122t121.5 -36h54v-37h-605z" />
<glyph unicode="H" horiz-adv-x="1479" d="M38 0v37h48q84 0 122 49q24 32 24 154v875q0 104 -13 137q-10 25 -41 43q-44 24 -92 24h-48v37h581v-37h-49q-83 0 -121 -49q-25 -32 -25 -155v-388h630v388q0 104 -13 137q-10 25 -42 43q-43 24 -91 24h-48v37h580v-37h-48q-83 0 -121 -49q-25 -32 -25 -155v-875 q0 -133 30 -162q42 -41 116 -41h48v-37h-580v37h48q83 0 121 49q25 32 25 154v413h-630v-413q0 -133 30 -162q42 -41 116 -41h49v-37h-581z" />
<glyph unicode="I" horiz-adv-x="682" d="M51 0v37h48q84 0 122 49q24 32 24 154v876q0 103 -13 136q-10 25 -41 43q-44 24 -92 24h-48v37h581v-37h-49q-83 0 -121 -49q-25 -32 -25 -154v-876q0 -133 30 -162q42 -41 116 -41h49v-37h-581z" />
<glyph unicode="J" horiz-adv-x="1292" d="M78 498q74 28 130 28q60 0 95 -24q47 -32 69 -87q17 -42 22 -156.5t56 -167.5q51 -54 139 -54q80 0 146 45.5t103 137t40 313.5h-10q-183 0 -312 73q-132 75 -216 225t-84 277q0 133 97.5 223.5t254.5 90.5q121 0 219.5 -69.5t160.5 -222.5q62 -152 62 -450v-10 q76 -14 105 -56q44 -64 44 -185q0 -13 -1 -38h-38q-4 83 -29.5 111t-89.5 31q-6 -145 -24 -216q-34 -135 -99 -219q-50 -63 -129 -96t-193 -33q-141 0 -224 46.5t-118 122.5q-21 46 -26 160.5t-27 145.5t-59 31q-19 0 -51 -10zM404 1043q0 -198 80.5 -288.5t234.5 -90.5 q50 0 164 7q1 46 1 69q0 188 -30.5 345t-92.5 214t-144 57q-96 0 -154.5 -71.5t-58.5 -241.5z" />
<glyph unicode="K" horiz-adv-x="1479" d="M37 0v37h48q84 0 122 49q24 32 24 154v876q0 103 -13 137q-10 24 -41 42q-44 24 -92 24h-48v37h580v-37h-48q-82 0 -121 -48q-25 -32 -25 -155v-415l314 291q152 147 194 218q15 25 15 49q0 25 -21 42.5t-71 17.5h-31v37h498v-37q-44 -1 -81 -12t-89.5 -43.5 t-128.5 -103.5q-21 -19 -203 -205l-206 -203l502 -497q124 -123 210.5 -167.5t173.5 -50.5v-37h-645v37q58 0 83.5 19.5t25.5 44.5q0 23 -10 42t-62 71l-468 463v-437q0 -133 30 -162q42 -41 116 -41h48v-37h-580z" />
<glyph unicode="L" horiz-adv-x="1405" d="M20 0v37q72 5 111 39q59 51 113 189l437 1122h37l444 -1152q43 -112 103 -161q44 -35 122 -37v-37h-522v37q70 4 97 27t27 63q0 35 -33 118l-312 811l-318 -816q-32 -80 -32 -110q0 -39 28.5 -63.5t106.5 -29.5v-37h-409z" />
<glyph unicode="M" horiz-adv-x="1821" d="M37 0v37h48q86 0 122 52q22 32 22 146v886q0 116 -39 157t-129 41h-24v37h384l492 -1061l484 1061h384v-37h-47q-87 0 -123 -52q-22 -32 -22 -146v-886q0 -125 28 -156q37 -42 117 -42h47v-37h-576v37h48q87 0 122 52q22 32 22 146v908l-523 -1143h-33l-524 1139v-904 q0 -125 27 -156q37 -42 117 -42h48v-37h-472z" />
<glyph unicode="N" horiz-adv-x="1479" d="M-24 1319v37h368l829 -1017v782q0 125 -28 156q-37 42 -117 42h-47v37h472v-37h-48q-86 0 -122 -52q-22 -32 -22 -146v-1143h-36l-894 1092v-835q0 -125 27 -156q38 -42 117 -42h48v-37h-472v37h47q87 0 123 52q22 32 22 146v943q-68 80 -102 99q-75 42 -140 42h-25z" />
<glyph unicode="O" horiz-adv-x="1479" d="M76 683q0 221 103.5 387t259.5 241.5t300 75.5q277 0 471 -199.5t194 -502.5q0 -308 -195 -512t-473 -204q-279 0 -469.5 199t-190.5 515zM305 687q0 -332 142 -511q109 -136 288 -136q191 0 315.5 149t124.5 470q0 347 -136 517q-111 138 -298 138q-189 0 -298 -134 q-138 -169 -138 -493z" />
<glyph unicode="P" horiz-adv-x="1573" d="M35 0v37h35q88 0 125.5 36t37.5 119v972q0 83 -37 119t-126 36h-35v37h1504v-37h-36q-88 0 -125 -36t-37 -119v-972q0 -83 37 -119t125 -36h36v-37h-605v37h51q88 0 126 36.5t38 118.5v1086h-726v-1085q0 -84 36 -120t124 -36h54v-37h-602z" />
<glyph unicode="Q" horiz-adv-x="1518" d="M74 667q0 310 199 515t482 205t485.5 -206t202.5 -497q0 -300 -201.5 -507.5t-488.5 -207.5q-308 0 -506 227q-173 200 -173 471zM303 670q0 -319 131 -476t322 -157q195 0 314 144q144 173 144 500q0 321 -144 495q-117 140 -310 140q-229 0 -356 -197 q-101 -159 -101 -449zM505 447v469h38q0 -90 36.5 -126.5t116.5 -36.5h118q86 0 122 36.5t37 126.5h37v-469h-37v12q0 55 -17 85q-19 33 -62 50q-22 9 -81 9h-115q-84 0 -119 -35t-36 -121h-38z" />
<glyph unicode="R" horiz-adv-x="1139" d="M38 0v37h51q86 0 123 56q20 31 20 147v876q0 128 -27 159q-39 44 -116 44h-51v37h497q207 0 315 -50t164.5 -134.5t56.5 -190.5q0 -166 -110 -270t-313 -104q-95 0 -224 28v-395q0 -128 28 -159q38 -44 115 -44h52v-37h-581zM424 692q104 -20 162 -20q105 0 181 80.5 t76 208.5q0 88 -35.5 163.5t-101.5 113t-149 37.5q-53 0 -133 -19v-564z" />
<glyph unicode="S" horiz-adv-x="1212" d="M56 0v37l523 627l-523 656v36h989l31 -338h-41q-15 138 -76.5 197t-177.5 59h-466l427 -537l-481 -579h530q133 0 199.5 50t110.5 188l37 -8l-62 -388h-1020z" />
<glyph unicode="T" horiz-adv-x="1251" d="M59 1038l16 318h1107l15 -318h-38q-11 84 -30 120q-31 58 -82.5 85.5t-135.5 27.5h-191v-1036q0 -125 27 -156q38 -42 117 -42h47v-37h-575v37h48q86 0 122 52q22 32 22 146v1036h-163q-95 0 -135 -14q-52 -19 -89 -73t-44 -146h-38z" />
<glyph unicode="U" horiz-adv-x="1413" d="M22 1312v44h572v-44q-90 -4 -120 -26.5t-30 -51.5q0 -40 64 -144l258 -422l252 446q41 73 41 114q0 35 -28.5 58.5t-104.5 25.5v44h468v-44q-81 -3 -133 -38q-93 -63 -172 -202l-284 -501v-379q0 -83 37 -119t126 -36h35v-37h-587v37h35q88 0 125 36t37 119v370l-333 550 q-51 83 -81 115q-41 42 -90 65q-32 16 -87 20z" />
<glyph unicode="V" horiz-adv-x="899" d="M71 357q0 283 188 460q135 126 369 126q110 0 156.5 -35t46.5 -80q0 -30 -22.5 -50.5t-58.5 -20.5q-41 0 -127.5 29t-137.5 29q-88 0 -165 -51t-126 -163t-49 -214q0 -100 68.5 -169t169.5 -69q49 0 119 9t113 9q102 0 166 -69.5t64 -200.5q0 -149 -91 -244t-219 -95 q-72 0 -109 28q-28 22 -28 55q0 27 20.5 47t48.5 20q24 0 69.5 -12t79.5 -12q68 0 111.5 46t43.5 128q0 64 -33 98.5t-89 34.5q-33 0 -91 -10q-77 -13 -131 -13q-153 0 -254.5 105t-101.5 284z" />
<glyph unicode="W" horiz-adv-x="1573" d="M56 0v279h35q3 -61 32 -83q45 -35 137 -35h270v70q-210 61 -324.5 209t-114.5 349q0 252 186.5 425t504.5 173q195 0 358.5 -73.5t252 -214.5t88.5 -310q0 -207 -121.5 -360.5t-317.5 -197.5l-8 -70h275q92 0 128 28t42 90h38v-279h-567l24 279q141 59 207.5 168 t66.5 306q0 272 -132.5 417.5t-333.5 145.5q-194 0 -328 -147.5t-134 -401.5q0 -200 68.5 -319t206.5 -169l25 -279h-564z" />
<glyph unicode="X" horiz-adv-x="1321" d="M66 0v369h36q3 -117 49.5 -162t159.5 -45h701q76 0 113.5 16t62.5 56.5t25 73.5l-1 30q0 12 1 31h42v-369h-1189zM109 1035v321h1104v-321h-39q-5 62 -31 98t-68 49t-128 13h-572q-130 0 -174.5 -36.5t-53.5 -123.5h-38zM299 453v441h35q3 -76 39.5 -110.5t121.5 -34.5 h327q95 0 130.5 34.5t36.5 110.5h36v-441h-36q-1 78 -37.5 113t-127.5 35h-324q-91 0 -128 -35.5t-38 -112.5h-35z" />
<glyph unicode="Y" horiz-adv-x="1628" d="M37 1335v37q124 -6 190.5 -45.5t96.5 -108t38 -226.5q7 -118 41 -183t114.5 -107t202.5 -44v506q0 83 -37 119t-125 36h-35v37h589v-37h-36q-88 0 -125 -36t-37 -119v-506q120 1 199.5 43.5t114 108t43.5 201t30 191.5q29 74 99.5 120.5t190.5 49.5v-37q-70 -6 -94 -43 q-18 -27 -19 -138q-3 -218 -42 -305q-50 -115 -173.5 -184.5t-348.5 -77.5v-395q0 -83 37 -119t125 -36h36v-37h-589v37h35q88 0 125 36t37 119v395q-189 6 -299.5 53t-177.5 132q-45 57 -64 118q-13 43 -20 101l-6 231q-4 61 -28 84.5t-88 28.5z" />
<glyph unicode="Z" horiz-adv-x="1251" d="M22 0v37l870 1238h-434q-108 0 -156.5 -23.5t-74 -68t-46.5 -166.5h-38l28 339h1003l-891 -1274h556q128 0 196.5 56t121.5 227l33 -6l-64 -359h-1104z" />
<glyph unicode="[" horiz-adv-x="682" d="M167 -406v1793h440v-86h-280v-1621h280v-86h-440z" />
<glyph unicode="\" horiz-adv-x="1767" d="M362 112q0 46 32.5 78.5t78.5 32.5t78.5 -32.5t32.5 -78.5t-32.5 -79t-78.5 -33t-78.5 33t-32.5 79zM772 906q0 46 32.5 78.5t78.5 32.5q45 0 77.5 -32.5t32.5 -78.5t-32.5 -78t-77.5 -32q-46 0 -78.5 32t-32.5 78zM1183 112q0 46 33 78.5t79 32.5t78.5 -32.5t32.5 -78.5 t-32.5 -79t-78.5 -33t-79 33t-33 79z" />
<glyph unicode="]" horiz-adv-x="682" d="M74 -320h281v1621h-281v86h440v-1793h-440v86z" />
<glyph unicode="^" horiz-adv-x="1348" d="M37 0v96h591v1260h97v-1260h585v-96h-1273z" />
<glyph unicode="_" horiz-adv-x="1024" d="M-17 -358h1059v-84h-1059v84z" />
<glyph unicode="`" horiz-adv-x="1024" d="M986 1794v75h1016v-75h-1016z" />
<glyph unicode="a" horiz-adv-x="1292" d="M84 450q0 220 122 356.5t286 136.5q114 0 201 -69.5t158 -258.5l86 301h166l-130 -455q-13 -43 -41 -135q38 -154 57 -184q36 -55 91 -55q40 0 74 33t45 103h40q-14 -144 -60.5 -199t-107.5 -55q-57 0 -103.5 48t-83.5 206q-44 -87 -86 -132q-59 -62 -128 -92.5 t-157 -30.5q-221 0 -325 147t-104 335zM276 422q0 -139 28 -218.5t84.5 -123t119.5 -43.5q77 0 141 71q87 96 167 395q-54 206 -139 287.5t-173 81.5q-98 0 -163 -107.5t-65 -342.5z" />
<glyph unicode="b" d="M121 -442q27 124 32 169q13 140 13 205v1022q0 179 35.5 265.5t128 144.5t221.5 58q179 0 286 -96t107 -228q0 -85 -43.5 -161.5t-134.5 -132.5q268 -128 268 -398q0 -120 -56 -224t-154 -158.5t-202 -54.5q-67 0 -132.5 23t-159.5 86v-169q0 -162 -40 -351h-169z M330 157q97 -68 169 -98q54 -22 108 -22q101 0 169.5 83.5t68.5 264.5q0 114 -32.5 199.5t-114.5 187.5q-69 -23 -119 -23q-60 0 -84.5 18t-24.5 39q0 19 19 34t61 15q49 0 148 -26q70 139 70 263q0 126 -62 195t-154 69q-116 0 -180 -98q-42 -65 -42 -209v-892z" />
<glyph unicode="c" d="M70 606q4 176 71 263q49 64 126 64q80 0 125 -57t68 -151l74 -304l252 495h180l-373 -728l64 -254q39 -156 78 -195t104 -39q75 0 119.5 43t52.5 138h37q1 -25 1 -38q0 -127 -77 -222q-50 -63 -130 -63q-56 0 -100 29.5t-72 87.5q-44 94 -60 160l-64 261l-266 -519h-175 l383 754l-74 295q-24 97 -57.5 127t-94.5 30q-67 0 -108 -42t-49 -135h-35z" />
<glyph unicode="d" horiz-adv-x="1012" d="M69 385q0 105 47 205.5t141 165.5t252 107q-40 39 -86 74q-147 113 -190 174.5t-43 114.5q0 78 75 137t238 59q189 0 295 -72q66 -45 66 -107q0 -34 -24.5 -58t-61.5 -24q-22 0 -39 10q-25 15 -86.5 82t-97.5 85q-47 23 -111 23q-89 0 -136.5 -38.5t-47.5 -84.5 q0 -44 53 -98.5t235 -163.5q231 -137 313 -255t82 -258q0 -205 -139.5 -349.5t-329.5 -144.5q-172 0 -288.5 120t-116.5 296zM249 411q0 -183 78 -278.5t180 -95.5q123 0 192.5 100t69.5 254q0 83 -23.5 156t-57.5 121q-26 36 -126 147q-156 -26 -234.5 -123.5t-78.5 -280.5 z" />
<glyph unicode="e" horiz-adv-x="899" d="M73 236q0 72 54.5 137t196.5 118q-118 44 -158 94t-40 119q0 93 78 155q106 85 279 85q103 0 185 -24t111.5 -62.5t29.5 -72.5q0 -31 -26 -56.5t-60 -25.5q-55 0 -91.5 71.5t-60.5 87.5q-39 26 -96 26q-90 0 -143 -52.5t-53 -142.5q0 -88 44 -135t121 -47q26 0 57 4 q49 7 77 7q43 0 58.5 -11t15.5 -26t-13 -23q-18 -13 -63 -13q-10 0 -33 3q-52 7 -85 7q-84 0 -137.5 -55t-53.5 -145q0 -105 55.5 -163.5t143.5 -58.5q71 0 116 43q26 25 55 104q19 52 31 64q32 32 68 32q42 0 71 -29t29 -72q0 -69 -79 -127q-115 -83 -293 -83 q-188 0 -289.5 83t-101.5 184z" />
<glyph unicode="f" horiz-adv-x="1067" d="M71 454q0 98 25 176t67.5 137t93 96.5t107.5 56.5q41 14 114 23v479h112v-479q199 -22 303.5 -157t104.5 -323q0 -86 -25 -166.5t-65.5 -141t-90.5 -100t-110 -60.5q-42 -14 -117 -23v-414h-112v414q-151 15 -244 95q-163 139 -163 387zM251 483q0 -158 40.5 -258.5 t100.5 -151.5q28 -25 86 -42v851q-66 -16 -101 -44q-57 -45 -91.5 -128.5t-34.5 -226.5zM590 31q61 14 95 40q62 48 96 133t34 237q0 139 -31 235.5t-86 148.5q-36 34 -108 57v-851z" />
<glyph unicode="g" horiz-adv-x="842" d="M-1 673q0 138 54 208q41 52 110 52q60 0 98 -36q52 -51 93 -222q52 -222 81 -483l88 297q59 200 152 427h167q-16 -36 -165 -342q-62 -128 -89 -194q-12 -27 -27 -59l-115 -246q7 -64 10 -118t3 -98q0 -136 -20 -210q-14 -52 -37 -71.5t-50 -19.5q-33 0 -58.5 28 t-25.5 72q0 77 31 177.5t92 225.5q-73 512 -116.5 618t-120.5 106q-47 0 -74 -28.5t-41 -128.5h-39q-1 30 -1 45z" />
<glyph unicode="h" horiz-adv-x="1235" d="M45 701q16 132 71 187t142 55q83 0 127 -47.5t51 -175.5q129 146 199.5 184.5t145.5 38.5q94 0 154.5 -46t81.5 -118.5t21 -254.5v-607q0 -151 7 -214t30 -145h-171q-22 95 -26 124q-9 77 -9 146v733q0 137 -25 181q-43 78 -135 78q-62 0 -123.5 -36.5t-149.5 -136.5 v-647h-164v670q0 87 -11 119.5t-29.5 46.5t-44.5 14q-35 0 -61 -29t-40 -120h-41z" />
<glyph unicode="i" horiz-adv-x="674" d="M67 828l283 115h38v-725q0 -87 22.5 -115.5t62.5 -28.5q31 0 53.5 26.5t34.5 110.5h40q-11 -131 -65 -186.5t-133 -55.5q-55 0 -99 29q-44 28 -64 80q-20 50 -19 168v12v422q0 63 -9 85t-30 36q-11 8 -45 8q-12 0 -58 -15z" />
<glyph unicode="j" horiz-adv-x="1235" d="M69 482q0 111 42.5 206t101.5 150t121.5 78.5t153.5 26.5v-38q-90 -7 -159 -102t-69 -303q0 -151 47 -257.5t118 -159.5q46 -34 131 -55v632q0 153 58.5 218t163.5 65q152 0 270.5 -131.5t118.5 -327.5q0 -131 -64.5 -255.5t-167.5 -184t-270 -72.5v-414h-109v414 q-153 13 -255.5 73t-167 183t-64.5 254zM665 30q101 11 163 47q86 49 131 141.5t45 220.5q0 181 -91 300q-66 86 -151 86q-43 0 -70 -37.5t-27 -159.5v-598z" />
<glyph unicode="k" d="M21 830l280 113h41v-439l283 263q110 103 176.5 139.5t119.5 36.5q56 0 90.5 -30.5t34.5 -70.5q0 -39 -25 -63t-66 -24q-28 0 -61 18q-58 31 -77 31q-53 0 -144 -86l-168 -158l299 -334q82 -92 123.5 -126.5t80.5 -48.5q26 -9 106 -14v-37h-486v37q31 3 42 13 q15 16 15 34q0 30 -50 87l-293 333v-504h-167v677q0 72 -12 94q-22 37 -59 37q-25 0 -70 -14z" />
<glyph unicode="l" d="M49 0l458 943l-17 88q-30 144 -80.5 195.5t-112.5 51.5q-56 0 -98 -41t-55 -133h-36q3 156 77 250q53 68 129 68q67 0 115 -53q72 -81 118 -286l160 -704q36 -158 82 -205q45 -48 106 -48q58 0 95.5 39t44.5 125h39q1 -26 1 -39q0 -131 -65 -211q-49 -60 -128 -60 q-70 0 -125 59t-103 271l-90 389l-337 -699h-178z" />
<glyph unicode="m" horiz-adv-x="1180" d="M124 -319q0 28 12 70q28 94 35 164q12 120 12 204v797h168v-577q0 -102 17 -147t61 -71t88 -26q52 0 123 31t144 100v690h166v-603q0 -120 11 -168q9 -34 27 -49t38 -15q25 0 46.5 25t31.5 99h41q-17 -134 -66 -185t-124 -51q-74 0 -118 45t-53 156 q-102 -113 -193.5 -157.5t-158.5 -44.5q-45 0 -88 17.5t-84 51.5v-20q0 -133 25 -233q19 -77 19 -108q0 -54 -27.5 -86t-62.5 -32q-36 0 -59 28q-31 38 -31 95z" />
<glyph unicode="n" horiz-adv-x="1067" d="M40 840v38l222 65h30q56 -103 101 -220l208 -537l183 326q46 83 46 152q0 31 -10 81q-13 65 -13 91q0 49 27 78.5t68 29.5q46 0 72.5 -27.5t26.5 -77.5q0 -39 -10 -72q-20 -61 -71 -155l-147 -258l-216 -382h-41l-259 635q-62 152 -89 186q-42 52 -91 52q-14 0 -37 -5z " />
<glyph unicode="o" d="M88 427q0 130 67.5 254.5t185.5 193t238 68.5q116 0 227.5 -63.5t170.5 -176.5t59 -228q0 -127 -63 -246t-175.5 -189.5t-249.5 -70.5q-192 0 -326 134t-134 324zM271 509q0 -200 89 -336t231 -136q106 0 183 93.5t77 275.5q0 246 -118 374q-87 94 -195 94 q-107 0 -187 -93.5t-80 -271.5z" />
<glyph unicode="p" d="M55 627q56 173 131 239q57 50 160 50h703v-145h-242q-35 -229 -35 -439q0 -103 36 -147.5t90 -44.5q43 0 75 30t41 87h35q-17 -158 -75.5 -223t-131.5 -65q-78 0 -130 71t-52 265q0 122 38 466h-260q-31 -524 -75 -663t-121 -139q-36 0 -59.5 24t-23.5 60q0 26 8 45 q11 26 47 73q61 81 85 170q43 152 56 430h-46q-73 0 -109 -24q-58 -36 -106 -120h-39z" />
<glyph unicode="q" horiz-adv-x="1067" d="M89 655q0 394 160 607q121 160 290 160q164 0 280 -154q162 -215 162 -585q0 -352 -159 -556q-124 -158 -292 -158q-91 0 -166 44t-133 127t-89 176q-53 160 -53 339zM280 660q4 -178 27 -320q17 -108 59 -188q25 -48 73 -81.5t103 -33.5q64 0 121.5 60t87 193t35.5 370 h-506zM280 726h508q-1 261 -50 419q-38 121 -101 173q-46 38 -106 38q-68 0 -125 -53t-86.5 -177t-39.5 -400z" />
<glyph unicode="r" d="M105 -442q21 64 27 104q10 68 10 171v641q0 207 130 339q130 131 328 131q226 0 344 -162q91 -126 91 -285q0 -179 -111 -330q-147 -198 -372 -198q-81 0 -147 24q-44 17 -98 62v-117q0 -247 -31 -380h-171zM307 357q0 -137 24.5 -191t89.5 -91.5t148 -37.5q125 0 212 98 t87 267q0 127 -53.5 235.5t-136.5 160.5t-175 52q-115 0 -165 -89q-31 -53 -31 -235v-169z" />
<glyph unicode="s" horiz-adv-x="1235" d="M78 478q0 127 63 230t159.5 155.5t295.5 52.5h598v-151h-448q151 -84 229 -186t78 -236q0 -154 -124 -264t-332 -110q-219 0 -369 149t-150 360zM255 460q0 -191 103 -307t244 -116q118 0 194 84.5t76 243.5q0 230 -201 400q-42 1 -64 1q-179 0 -265.5 -80t-86.5 -226z " />
<glyph unicode="t" horiz-adv-x="899" d="M43 628q72 192 129 240t162 48h479v-147h-312q-34 -329 -34 -451q0 -97 36.5 -140.5t91.5 -43.5q41 0 71 28t44 96h35q-17 -164 -73 -226.5t-131 -62.5q-79 0 -132 71.5t-53 255.5q0 145 36 473h-94q-81 0 -127 -29.5t-91 -111.5h-37z" />
<glyph unicode="u" horiz-adv-x="1180" d="M71 845q0 40 30 69t73 29q69 0 122.5 -67t53.5 -200q0 -52 -7 -137.5t-7 -150.5q0 -110 36 -189.5t101.5 -120.5t134.5 -41q72 0 148 46t124.5 153t48.5 252q0 181 -71 283.5t-196 136.5v35q122 0 236 -87q170 -132 170 -371q0 -229 -140 -372.5t-357 -143.5 q-132 0 -225.5 50.5t-139.5 150.5q-34 73 -34 206l5 167q0 86 -53 175q-37 62 -46 87q-7 19 -7 40z" />
<glyph unicode="v" horiz-adv-x="1460" d="M65 627q36 119 84 180.5t110.5 85t197.5 23.5h934v-133h-241q110 -128 147.5 -215t37.5 -194q0 -185 -99 -295t-229 -110q-77 0 -135 42t-99 141q-50 -102 -106.5 -142.5t-136.5 -40.5q-132 0 -227 107.5t-95 288.5q0 115 43 209t154 209h-85q-148 0 -218 -156h-37z M397 409q0 -196 63 -291q41 -60 107 -60q52 0 94.5 39t83.5 164q-62 169 -62 261q0 76 39 130q23 33 54 33t54 -33q34 -47 34 -129q0 -49 -12 -102t-51 -160q27 -109 77.5 -155.5t110.5 -46.5q66 0 105 56q56 83 56 280q0 153 -37 267q-21 66 -69 121h-530 q-62 -69 -89.5 -148.5t-27.5 -225.5z" />
<glyph unicode="w" horiz-adv-x="1405" d="M80 429q0 141 57 257q44 90 112.5 149t145.5 83.5t196 24.5v-36q-139 -14 -229.5 -131.5t-90.5 -345.5q0 -225 69 -330q42 -63 118 -63q63 0 119.5 52t96.5 188q-44 117 -57.5 174t-13.5 109q0 97 45 167q22 35 52 35q31 0 53 -35q43 -66 43 -161q0 -116 -65 -289 q39 -137 91.5 -184.5t118.5 -47.5q78 0 126 61q65 82 65 307q0 273 -121 403q-73 79 -201 91v36q169 0 276 -57.5t172.5 -185t65.5 -279.5q0 -129 -51 -236t-139.5 -161.5t-168.5 -54.5q-88 0 -150 50t-111 155q-55 -106 -124.5 -155.5t-155.5 -49.5q-75 0 -158.5 53.5 t-134.5 165t-51 241.5z" />
<glyph unicode="x" horiz-adv-x="1010" d="M91 341q0 124 64 241.5t207 198.5q-131 81 -131 185q0 87 84 181q-73 17 -110.5 58t-37.5 88q0 51 39.5 87t138.5 42v-35q-58 -10 -80 -33.5t-22 -57.5q0 -42 28.5 -69t90.5 -30q112 100 184 138t127 38q26 0 43.5 -16t17.5 -38q0 -50 -54 -89q-87 -63 -274 -81 q-105 -90 -105 -184q0 -93 131 -147q100 40 176 59.5t129 19.5q47 0 68 -17.5t21 -45.5q0 -35 -35 -57q-63 -40 -188 -40q-36 0 -76 4t-83 11q-123 -52 -198.5 -154.5t-75.5 -212.5q0 -85 40.5 -138.5t101.5 -75.5q37 -14 115 -14q80 0 159 6q108 7 142 7q97 0 162 -70 q65 -71 65 -196q0 -159 -88.5 -252.5t-218.5 -93.5q-69 0 -104.5 28t-35.5 60q0 26 20 45t48 19q21 0 75 -14t77 -14q66 0 111.5 46t45.5 120q0 62 -36.5 99.5t-88.5 37.5q-29 0 -96.5 -8.5t-133.5 -8.5q-158 0 -242.5 38t-140.5 129t-56 206z" />
<glyph unicode="y" horiz-adv-x="1405" d="M47 894v33q84 17 115 17q59 0 109 -33.5t75 -101.5t39 -234q20 -247 54.5 -347t81.5 -141.5t126 -58.5v888h109v-888q77 15 124 56t82 139t57 353q19 211 66 289.5t158 78.5q38 0 113 -17v-33q-43 0 -64 -15q-29 -22 -47 -76t-33 -199q-23 -234 -66 -339 q-32 -77 -97 -145.5t-134.5 -103t-158.5 -44.5v-414h-109v414q-136 17 -238 94.5t-152 196.5q-38 90 -66 343q-17 152 -34 204t-45 71q-18 13 -65 13z" />
<glyph unicode="z" horiz-adv-x="1012" d="M91 400q0 186 77 371.5t238 343.5q-60 21 -87 57t-27 81q0 50 35.5 90t135.5 72l17 -35q-103 -46 -103 -130q0 -29 17.5 -49.5t68.5 -35.5q138 105 265 163q90 40 130 40q28 0 41.5 -12t13.5 -33q0 -63 -134.5 -136t-286.5 -84q-157 -141 -239.5 -326t-82.5 -363 q0 -88 29.5 -149.5t81.5 -86t173 -24.5q70 0 220 9q39 2 61 2q98 0 162 -70q63 -71 63 -200q0 -161 -88 -253t-224 -92q-68 0 -101 26t-33 59q0 30 21 49.5t57 19.5q16 0 71.5 -15t87.5 -15q51 0 94 47.5t43 117.5q0 62 -39 101t-104 39q-23 0 -73 -5q-135 -13 -197 -13 q-211 0 -297.5 116.5t-86.5 322.5z" />
<glyph unicode="{" horiz-adv-x="983" d="M211 471v39q108 19 167.5 79t59.5 131q0 52 -23.5 147.5t-23.5 164.5q0 141 106 255.5t272 134.5v-38q-114 -20 -173.5 -86t-59.5 -153q0 -61 20 -157.5t20 -161.5q0 -99 -71 -190.5t-212 -142.5q144 -58 214 -148t70 -190q0 -60 -20 -158t-20 -157q0 -86 56.5 -151.5 t175.5 -95.5v-35q-167 23 -271.5 135.5t-104.5 253.5q0 67 23 163.5t23 144.5q0 74 -56.5 134.5t-171.5 81.5z" />
<glyph unicode="|" horiz-adv-x="410" d="M164 -442v1864h83v-1864h-83z" />
<glyph unicode="}" horiz-adv-x="983" d="M214 -403q114 20 173 85.5t59 153.5q0 61 -19.5 157.5t-19.5 161.5q0 99 71 190.5t212 142.5q-145 58 -214.5 148t-69.5 189q0 61 20 159t20 157q0 85 -56.5 151t-175.5 95v35q167 -22 271.5 -135t104.5 -253q0 -67 -23 -163.5t-23 -145.5q0 -73 56 -133.5t172 -81.5v-39 q-109 -19 -168 -79t-59 -131q0 -52 23.5 -148t23.5 -164q0 -141 -106 -255.5t-272 -135.5v39z" />
<glyph unicode="~" d="M52 367q19 162 97 241.5t177 79.5q49 0 122 -24q53 -18 209 -101q118 -63 193 -63q64 0 105 40q54 53 68 141h50q-20 -163 -98.5 -242t-183.5 -79q-49 0 -112.5 22t-197 96.5t-205.5 74.5q-66 0 -115.5 -47t-62.5 -139h-46z" />
<glyph unicode="&#xa0;" horiz-adv-x="1460" d="M55 0v94h829q199 0 309.5 102.5t110.5 255.5q0 122 -75.5 217.5t-148.5 112.5q-148 33 -193 33h-832v101h805q154 0 248 -34q122 -45 207.5 -159.5t85.5 -264.5q0 -125 -67.5 -235.5t-175.5 -166.5t-298 -56h-805zM55 -199h1315v-94h-1315v94z" />
<glyph unicode="&#xa1;" horiz-adv-x="1405" d="M45 149q71 88 135 127t130 39q78 0 160 -42q62 -31 175 -140t187 -109q85 0 176.5 63.5t91.5 160.5q0 39 -10 68q-19 50 -70 134q-94 154 -124 233q-18 48 -18 89q0 101 65.5 171t148.5 70q85 0 177 -80l-24 -17q-71 49 -118 49q-41 0 -63.5 -23.5t-22.5 -67.5 q0 -72 81 -205.5t102 -190t21 -105.5q0 -81 -70.5 -183.5t-202 -161.5t-287.5 -59q-129 0 -212 36.5t-199 151.5q-52 51 -95 51q-26 0 -49 -14.5t-43 -44.5h-42zM152 1094q0 119 95 206t248 87q57 0 111.5 -12t167.5 -54q217 -81 296 -81q117 0 169 124l33 -8 q-38 -131 -122.5 -198.5t-185.5 -67.5q-97 0 -293 68q-142 50 -192.5 61t-96.5 11q-82 0 -131.5 -46.5t-49.5 -114.5q0 -65 48.5 -112t122.5 -47q26 0 69 6l8 -34q-50 -7 -81 -7q-89 0 -152.5 64t-63.5 155z" />
<glyph unicode="&#xa2;" horiz-adv-x="506" d="M121 803l31 296q13 126 26 170q19 63 53.5 90.5t77.5 27.5q36 0 57 -20t21 -51q0 -24 -10 -51q-13 -38 -74 -167l-138 -295h-44z" />
<glyph unicode="&#xa3;" d="M60 0v96h1006v-96h-1006zM60 720v51l1006 500v-110l-842 -415l842 -418v-106z" />
<glyph unicode="&#xa5;" d="M121 153l372 371l-372 370l70 70l372 -370l372 370l69 -68l-371 -373l371 -370l-69 -70l-372 371l-372 -371z" />
<glyph unicode="&#xa7;" horiz-adv-x="342" d="M-341 -54l935 1438h89l-935 -1438h-89z" />
<glyph unicode="&#xa8;" horiz-adv-x="2021" d="M75 470v56q132 75 290 212.5t277 282.5h80q-57 -135 -117 -229t-194 -247h1535v-97h-1535q143 -164 200 -253.5t111 -222.5h-80q-117 144 -291 292t-276 206z" />
<glyph unicode="&#xa9;" horiz-adv-x="1542" d="M247 835q0 86 30.5 149.5t87 94.5t116.5 31q85 0 154 -54.5t90 -141.5q10 -40 24 -55q7 -8 18 -8q15 0 22 8q15 16 26 55q25 93 89.5 144t153.5 51q104 0 170 -73t66 -203q0 -88 -40.5 -182t-163.5 -249t-151 -194l-171 -239l-170 241q-28 40 -150.5 196.5t-161.5 247 t-39 181.5z" />
<glyph unicode="&#xaa;" d="M52 173q19 162 97 241.5t177 79.5q49 0 122 -24q53 -18 209 -101q118 -63 193 -63q64 0 105 41q54 52 68 141h50q-20 -163 -98.5 -242.5t-183.5 -79.5q-49 0 -112.5 22t-197 97t-205.5 75q-66 0 -115.5 -47.5t-62.5 -139.5h-46zM52 561q19 162 97 241.5t177 79.5 q49 0 122 -24q53 -18 209 -101q118 -63 193 -63q64 0 105 40q54 52 68 141h50q-20 -163 -98.5 -242t-183.5 -79q-49 0 -112.5 21.5t-197 96.5t-205.5 75q-66 0 -115.5 -47.5t-62.5 -138.5h-46z" />
<glyph unicode="&#xab;" horiz-adv-x="1573" d="M77 0v296q0 147 51.5 277.5t146.5 228.5t223.5 159t289.5 61q170 0 310 -72.5t228.5 -174.5t128.5 -228.5t40 -250.5v-296h-93v268q0 96 -23 199.5t-67 170.5q-63 97 -149.5 162t-181 96.5t-194.5 31.5q-255 0 -447 -194q-167 -167 -167 -463v-271h-96z" />
<glyph unicode="&#xac;" horiz-adv-x="1628" d="M94 1019q0 71 51 167t138 148.5t205 52.5q124 0 194 -47t119 -153l139 67q157 75 262 151q128 -76 146 -90q60 -48 88.5 -100t28.5 -107q0 -83 -53.5 -158t-209.5 -155q72 -55 109.5 -141.5t37.5 -177.5l-4 -175q0 -118 20.5 -148t57.5 -30q34 0 88 41l20 -26l-236 -180 q-85 63 -116.5 129.5t-31.5 194.5q0 40 3.5 100.5t3.5 83.5q0 84 -34 150q-24 45 -85 93l-199 -78l2 -109q0 -57 -21.5 -145.5t-53.5 -134.5q-48 -71 -157 -141l-220 -143l-148 157l-68 -44l-24 30l234 148l147 -155q48 23 68 48q28 36 41 107t13 220v447q0 216 -27 299 q-20 60 -63 89q-59 41 -128 41q-94 0 -163 -64.5t-69 -137.5q0 -44 33 -92q14 -22 104 -98q118 -102 118 -223q0 -76 -41.5 -137t-127.5 -114l-8 34q43 23 58 44.5t15 49.5q0 31 -17.5 62.5t-80.5 90.5q-93 89 -125.5 147t-32.5 112zM814 1149q15 -60 20 -119 q10 -117 10 -273q0 -25 -6 -80l92 35q71 28 192 91q79 42 116 97.5t37 127.5q0 89 -49 149t-153 60q-108 0 -259 -88z" />
<glyph unicode="&#xad;" d="M37 477v99h1050v-99h-1050z" />
<glyph unicode="&#xae;" horiz-adv-x="1542" d="M304 563l472 592l462 -592l-462 -594z" />
<glyph unicode="&#xaf;" horiz-adv-x="786" d="M-109 -146q282 194 448 455q132 209 199 501t67 540v547h98v-527q0 -308 -75 -604q-64 -256 -180.5 -449t-273.5 -325q-113 -97 -260 -158z" />
<glyph unicode="&#xb0;" horiz-adv-x="1270" d="M19 1335v43q74 9 115 9q102 0 195 -48t160 -127.5t105 -171.5t61 -225q45 300 191 469q89 103 221 103q87 0 137 -43.5t50 -101.5q0 -50 -31.5 -81.5t-80.5 -31.5q-38 0 -67 24t-46 85q-8 28 -18 37.5t-25 9.5q-26 0 -62 -30q-57 -49 -110.5 -166t-69.5 -236 q-28 -193 -28 -391v-270q0 -83 37 -119t126 -36h35v-37h-588v37h35q88 0 125 36t37 119v348q0 307 -66 478.5t-167 247.5t-195 76q-28 0 -76 -7z" />
<glyph unicode="&#xb1;" d="M37 0v99h1050v-99h-1050zM37 694v97h478v479h97v-479h475v-97h-475v-475h-97v475h-478z" />
<glyph unicode="&#xb4;" horiz-adv-x="2134" d="M41 467v56q119 68 290 218t277 280h80q-54 -133 -111 -222.5t-200 -253.5h1380q-142 164 -199 253.5t-111 222.5h80q117 -144 291 -292t276 -206v-56q-133 -74 -290.5 -212t-276.5 -283h-80q57 135 117 229t193 247h-1380q134 -153 194 -247t117 -229h-80 q-119 145 -277 283t-290 212z" />
<glyph unicode="&#xb5;" horiz-adv-x="1460" d="M102 531q0 163 92.5 264t217.5 101q90 0 156 -49t135 -180q61 147 144.5 212t219.5 65q80 0 147.5 -25t142.5 -81v-59q-117 89 -232 89q-72 0 -122 -32t-95 -109q-32 -56 -109 -263q121 -275 335 -275q124 0 223 82v-58q-110 -106 -244 -106q-91 0 -166.5 53t-176.5 235 q-60 -119 -137.5 -176.5t-189.5 -57.5q-142 0 -241.5 104t-99.5 266zM157 530q0 -133 70.5 -212.5t159.5 -79.5q95 0 168 85q47 56 118 267q-49 110 -112 162t-155 52q-106 0 -177.5 -74.5t-71.5 -199.5z" />
<glyph unicode="&#xb6;" horiz-adv-x="1024" d="M0 -334q0 39 24 65t55 26q27 0 47 -18.5t20 -39.5q0 -23 -14 -39q-11 -12 -11 -19q0 -8 7.5 -15t18.5 -7q20 0 37 10q31 18 60.5 65.5t61.5 179.5q6 24 87 422q9 45 128 533h-182l16 68q101 6 127.5 15t43.5 33q27 36 61 137q75 218 143 279t151 61q65 0 103 -33.5 t38 -81.5q0 -36 -20.5 -57.5t-49.5 -21.5q-26 0 -45 18t-19 39q0 17 11 35.5t11 27.5q0 11 -9 18.5t-27 7.5q-32 0 -58 -24q-37 -34 -49 -90q-29 -137 -65 -363h182l-16 -68h-179q-51 -268 -177 -725q-96 -349 -209 -460q-86 -86 -178 -86q-57 0 -91 31.5t-34 76.5z" />
<glyph unicode="&#xb7;" horiz-adv-x="674" d="M65 524l440 898h107l-439 -898l439 -900h-107z" />
<glyph unicode="&#xb8;" horiz-adv-x="1012" d="M28 1851v46q254 -33 372 -168.5t118 -408.5v-1487h-98v1384q0 149 -15 255.5t-61.5 178.5t-126 123.5t-189.5 76.5z" />
<glyph unicode="&#xba;" horiz-adv-x="2048" d="M230 83q0 46 32.5 78.5t78.5 32.5t78.5 -32.5t32.5 -78.5q0 -47 -32.5 -79.5t-78.5 -32.5t-78.5 32.5t-32.5 79.5zM913 83q0 46 32.5 78.5t78.5 32.5t78.5 -32.5t32.5 -78.5q0 -47 -32.5 -79.5t-78.5 -32.5t-78.5 32.5t-32.5 79.5zM1596 83q0 46 32.5 78.5t78.5 32.5 t78.5 -32.5t32.5 -78.5q0 -47 -32.5 -79.5t-78.5 -32.5t-78.5 32.5t-32.5 79.5z" />
<glyph unicode="&#xbb;" horiz-adv-x="1573" d="M77 726v296h93v-267q0 -96 23 -200t67 -171q63 -96 149 -161t180.5 -97t195.5 -32q255 0 447 194q167 168 167 463v271h96v-295q0 -148 -51.5 -278.5t-146.5 -228.5t-223.5 -159t-289.5 -61q-170 0 -310 73t-228.5 174.5t-128.5 228t-40 250.5z" />
<glyph unicode="&#xbf;" horiz-adv-x="1686" d="M228 1160q0 50 26 98q39 74 85 115q16 14 27 14q9 0 14.5 -5t5.5 -13q0 -9 -4 -22q-10 -28 -10 -50q0 -42 16 -76q24 -51 78 -106q80 -81 135 -126l373 -307l265 329q-88 71 -120 124q-20 34 -20 77q0 61 43.5 108.5t137.5 66.5q-38 -55 -38 -93q0 -37 18.5 -66.5 t91.5 -88.5q113 -91 113 -179q0 -38 -20 -66.5t-69 -56.5q-17 57 -39.5 88.5t-66.5 63.5l-268 -333l183 -154q57 -47 133 -124q57 -57 78.5 -100t21.5 -81q0 -89 -78 -175q-48 -53 -71 -53q-6 0 -10.5 4.5t-4.5 12.5t10 29q16 36 16 71q0 49 -30 97.5t-182 174.5l-590 488 l-71 -85q-53 -64 -53 -144q0 -62 23 -110q35 -72 121 -158.5t117 -141.5q19 -34 19 -72q0 -73 -54.5 -119.5t-182.5 -46.5q-47 0 -65.5 4.5t-24.5 12t-6 14.5q0 5 4 9q7 7 30 14.5t41 33t18 54.5q0 40 -40 118q-56 110 -70.5 160.5t-14.5 117.5q0 73 31 140q48 101 89 152 l59 72l-146 140q-36 34 -55 72.5t-19 76.5z" />
<glyph unicode="&#xc0;" horiz-adv-x="1460" d="M59 458q0 125 67.5 235.5t175.5 166.5t298 56h424l81 159h105l-80 -159h275v-94h-328l-378 -721h706v-101h-755l-80 -156h-105l81 156q-173 17 -253 59q-103 55 -168.5 164.5t-65.5 234.5zM156 465q0 -81 33.5 -153t95 -122.5t128.5 -63.5q130 -25 160 -25h23l376 721 h-396q-201 0 -310.5 -103t-109.5 -254z" />
<glyph unicode="&#xc1;" horiz-adv-x="786" d="M83 -166v2063h97v-2063h-97z" />
<glyph unicode="&#xc2;" horiz-adv-x="1460" d="M43 -168l669 831l-669 817v37h1278l27 -337h-40q-16 138 -77.5 197t-171.5 59h-740l562 -687l-629 -777h818q70 0 153 27q57 19 94.5 67.5t62.5 151.5l40 -7l-64 -415h-1313v36z" />
<glyph unicode="&#xc3;" horiz-adv-x="1460" d="M59 458q0 125 67.5 235.5t175.5 166.5t298 56h805v-94h-829q-200 0 -310 -102.5t-110 -255.5q0 -122 75.5 -218t148.5 -112q150 -33 193 -33h832v-101h-805q-154 0 -248 34q-122 45 -207.5 159.5t-85.5 264.5z" />
<glyph unicode="&#xc6;" horiz-adv-x="2021" d="M75 448v97h1534q-142 164 -199 253.5t-111 222.5h80q117 -144 291 -292t276 -206v-56q-133 -74 -290.5 -212t-276.5 -283h-80q57 135 117 229t193 247h-1534z" />
<glyph unicode="&#xc8;" horiz-adv-x="786" d="M0 -166v2063h703v-98h-606v-1965h-97z" />
<glyph unicode="&#xca;" horiz-adv-x="786" d="M83 -166v526q0 308 75 605q64 255 180.5 448t272.5 325q114 97 261 159l23 -21q-282 -194 -448 -455q-132 -209 -199.5 -501t-67.5 -540v-546h-97z" />
<glyph unicode="&#xcb;" horiz-adv-x="786" d="M83 1370v527h97v-547q0 -316 84.5 -615t252.5 -525q145 -195 378 -356l-23 -20q-241 101 -428.5 331.5t-274 559.5t-86.5 645z" />
<glyph unicode="&#xcc;" horiz-adv-x="1012" d="M28 828v76q213 59 303 182t90 391v420h97v-439q0 -145 -30 -253t-82.5 -170t-127.5 -100.5t-205 -68.5q131 -28 211.5 -70t132.5 -110t76.5 -167t24.5 -242v-443h-97v422q0 268 -90 391t-303 181z" />
<glyph unicode="&#xcd;" horiz-adv-x="786" d="M0 -166v2063h97v-2063h-97z" />
<glyph unicode="&#xce;" horiz-adv-x="786" d="M0 -166v2063h97v-1966h606v-97h-703z" />
<glyph unicode="&#xcf;" horiz-adv-x="1012" d="M420 -167v1487q0 272 118 408t372 169v-46q-149 -35 -239 -114t-122 -181.5t-32 -338.5v-1384h-97z" />
<glyph unicode="&#xd2;" horiz-adv-x="674" d="M62 -376l439 898l-439 900h107l440 -900l-440 -898h-107z" />
<glyph unicode="&#xd3;" horiz-adv-x="1012" d="M420 410v1487h97v-1384q0 -149 15.5 -255.5t62 -178.5t126 -123.5t189.5 -76.5v-46q-254 33 -372 168.5t-118 408.5z" />
<glyph unicode="&#xd4;" horiz-adv-x="1012" d="M420 -166v2063h97v-2063h-97z" />
<glyph unicode="&#xd5;" horiz-adv-x="1460" d="M58 458q0 125 67.5 235.5t175.5 166.5t298 56h805v-94h-829q-200 0 -310 -102.5t-110 -255.5q0 -122 75.5 -218t149.5 -112q149 -33 192 -33h832v-101h-805q-154 0 -248 34q-122 45 -207.5 159.5t-85.5 264.5zM87 -199h1317v-94h-1317v94z" />
<glyph unicode="&#xd8;" horiz-adv-x="1235" d="M93 539v80q135 -57 229 -117t247 -193v1534h97v-1534q164 142 253.5 199t222.5 111v-80q-144 -117 -292 -291t-206 -276h-56q-75 133 -212.5 290.5t-282.5 276.5z" />
<glyph unicode="&#xd9;" horiz-adv-x="1405" d="M678 -182v2169h172v-2169h-172z" />
<glyph unicode="&#xda;" horiz-adv-x="561" d="M0 -99q0 45 25.5 72t64.5 27q40 0 69 -32t49 -32q17 0 28 14t11 47q0 42 -9 120q-37 315 -37 831q18 551 23 598q23 186 80.5 251.5t130.5 65.5q50 0 87.5 -33.5t37.5 -73.5q0 -47 -26.5 -75.5t-65.5 -28.5q-35 0 -76 36q-23 20 -40 20t-28.5 -14.5t-11.5 -49.5 q0 -42 9 -145q37 -410 37 -665q0 -67 -16 -588q-8 -295 -90 -399q-54 -67 -134 -67q-52 0 -85 34t-33 87z" />
<glyph unicode="&#xdb;" horiz-adv-x="1405" d="M678 -167v839q0 198 24 365q33 225 98.5 391.5t175.5 300.5q77 93 152.5 130.5t145.5 37.5q86 0 136.5 -47.5t50.5 -115.5q0 -61 -40 -103.5t-91 -42.5q-52 0 -87 34t-35 79q0 36 19 64t57 48q-78 0 -115 -20q-89 -46 -150 -132q-84 -119 -126.5 -305.5t-42.5 -502.5 v-1020h-172z" />
<glyph unicode="&#xdf;" horiz-adv-x="1542" d="M185 414q0 75 30 142.5t80 96.5t113 29q37 0 69 -10t99 -46.5t92 -36.5q14 0 22 8t8 23q0 18 -8 29q-13 16 -55 42q-59 36 -92 96.5t-33 119.5q0 93 70 158t193 65q121 0 190 -64.5t69 -159.5q0 -64 -33.5 -122t-84 -89.5t-60.5 -44t-10 -27.5t9.5 -24.5t22.5 -9.5 q24 0 87 36q101 58 173 58q69 0 117.5 -30.5t76 -100.5t27.5 -138q0 -111 -57.5 -178t-154.5 -67q-56 0 -103.5 22.5t-121.5 100.5q-31 33 -43 39.5t-23 6.5q-9 0 -14 -4q-8 -7 -12 -25q-6 -25 -6 -78q0 -76 15.5 -121.5t64.5 -109.5h-263q49 68 64.5 113t15.5 116 q0 58 -5 79q-3 16 -10.5 22.5t-14.5 6.5q-10 0 -23.5 -8t-67 -63t-86.5 -71q-57 -27 -115 -27q-96 0 -154 67t-58 179z" />
<glyph unicode="&#xe6;" horiz-adv-x="2048" d="M-115 448v97h2279v-97h-2279z" />
<glyph unicode="&#xf7;" d="M84 916l301 151l405 -823l260 1625h74l-312 -1947l-496 1021l-198 -91z" />
<glyph unicode="&#xf8;" horiz-adv-x="1348" d="M32 191l342 226v-177h744v1031h97v-1129h-841v-173z" />
<glyph unicode="&#xff;" horiz-adv-x="1460" d="M48 471v95h1319v-566h-96v471h-1223z" />
<glyph unicode="&#x152;" horiz-adv-x="1460" d="M266 459q0 193 138 325t392 132h401v-96h-413q-132 0 -223 -43t-141 -118q-35 -54 -55 -152h832v-100h-831q41 -160 139 -235t281 -75h411v-97h-398q-176 0 -285.5 52t-178.5 166t-69 241z" />
<glyph unicode="&#x153;" horiz-adv-x="1460" d="M267 459q0 193 138 325t392 132h144l91 159h110l-90 -159h146v-96h-202l-180 -313h382v-100h-436l-159 -280q96 -30 184 -30h411v-97h-398q-154 0 -249 37l-106 -181h-108l131 222q-103 85 -142 156q-59 108 -59 225zM366 507h340l179 313h-100q-192 0 -291 -82 t-128 -231zM367 407q23 -90 50.5 -134.5t100.5 -106.5l133 241h-284z" />
<glyph unicode="&#x178;" horiz-adv-x="1235" d="M48 0l545 916h52l544 -916h-114l-457 767l-456 -767h-114z" />
<glyph unicode="&#x2c6;" horiz-adv-x="786" d="M-109 1876l23 21q241 -101 428.5 -332t274 -559.5t86.5 -645.5v-526h-98v546q0 316 -84 615t-252 525q-145 196 -378 356z" />
<glyph unicode="&#x2dc;" horiz-adv-x="786" d="M605 -166v2063h97v-2063h-97z" />
<glyph unicode="&#x2000;" horiz-adv-x="993" />
<glyph unicode="&#x2001;" horiz-adv-x="1987" />
<glyph unicode="&#x2002;" horiz-adv-x="993" />
<glyph unicode="&#x2003;" horiz-adv-x="1987" />
<glyph unicode="&#x2004;" horiz-adv-x="662" />
<glyph unicode="&#x2005;" horiz-adv-x="496" />
<glyph unicode="&#x2006;" horiz-adv-x="331" />
<glyph unicode="&#x2007;" horiz-adv-x="331" />
<glyph unicode="&#x2008;" horiz-adv-x="248" />
<glyph unicode="&#x2009;" horiz-adv-x="397" />
<glyph unicode="&#x200a;" horiz-adv-x="110" />
<glyph unicode="&#x2010;" d="M37 477v99h1050v-99h-1050z" />
<glyph unicode="&#x2011;" d="M37 477v99h1050v-99h-1050z" />
<glyph unicode="&#x2012;" d="M37 477v99h1050v-99h-1050z" />
<glyph unicode="&#x2013;" horiz-adv-x="1573" d="M83 0l1340 1387l69 -72l-1181 -1221h1112v-94h-1340z" />
<glyph unicode="&#x2014;" horiz-adv-x="1460" d="M74 1356h1315l-699 -1387zM313 1275l442 -991l502 991h-944z" />
<glyph unicode="&#x2018;" horiz-adv-x="1823" d="M50 1158l22 198h645l21 -198h-33q-16 85 -60 117.5t-193 34.5v-560q0 -78 22.5 -102.5t81.5 -24.5v-31h-327v31q61 2 79 23q26 29 26 99v565q-133 -2 -171 -22q-54 -29 -80 -130h-33zM783 592v31q64 4 84 27t20 98v447q0 79 -19.5 101.5t-84.5 24.5v35h232l263 -581 l268 581h222v-35q-60 -4 -79.5 -26t-19.5 -97v-451q0 -80 30 -108q18 -16 69 -16v-31h-326v31q45 1 64.5 11.5t30.5 36.5q9 20 9 74v487l-268 -640h-41l-293 616v-459q0 -76 22 -101t81 -25v-31h-264z" />
<glyph unicode="&#x2019;" horiz-adv-x="1686" d="M46 -166h35q88 0 125.5 35.5t37.5 119.5v1334q0 83 -37 119t-126 36h-35v38h1594v-38h-35q-88 0 -125 -35.5t-37 -119.5v-1334q0 -67 25 -105q18 -27 68 -41q31 -9 104 -9v-38h-597v38h35q88 0 125 35.5t37 119.5v1449h-795v-1449q0 -67 25 -105q18 -27 69 -41 q30 -9 104 -9v-38h-597v38z" />
<glyph unicode="&#x201a;" horiz-adv-x="1618" d="M99 678q0 294 208 502t502 208t501.5 -208t207.5 -502t-207.5 -502t-501.5 -208t-502 208t-208 502zM178 678q0 -261 184.5 -446t445.5 -185q262 0 446.5 185t184.5 446t-184.5 446t-446.5 185q-261 0 -445.5 -185t-184.5 -446zM545 321v764h297q161 0 231 -59t70 -147 q0 -93 -73 -156q-53 -45 -155 -60q46 -22 65 -39t59 -72t61 -92l78 -139h-122l-74 126q-85 147 -129.5 176t-145.5 29h-63v-331h-99zM644 738h97q160 0 212 16q38 11 62.5 45t24.5 71q0 55 -41.5 94.5t-209.5 39.5h-145v-266z" />
<glyph unicode="&#x201c;" horiz-adv-x="1618" d="M99 678q0 294 208 502t502 208t501.5 -208t207.5 -502t-207.5 -502t-501.5 -208t-502 208t-208 502zM178 678q0 -261 184.5 -446t446.5 -185q261 0 445.5 185t184.5 446t-184.5 446t-445.5 185q-262 0 -446.5 -185t-184.5 -446zM473 331v32q59 4 78 26.5t19 96.5v457 q0 66 -19 89t-69 28v32h363q131 0 196.5 -55.5t65.5 -136.5q0 -73 -48 -124t-155 -73l202 -259q39 -49 64 -66q18 -11 50 -15v-32h-170l-282 356h-74v-197q0 -80 18.5 -101.5t76.5 -25.5v-32h-316zM694 735q34 -2 51 -2q117 0 170 44t53 116q0 68 -47.5 113t-130.5 45 q-40 0 -96 -18v-298z" />
<glyph unicode="&#x201d;" horiz-adv-x="1618" d="M99 678q0 294 207.5 502t501.5 208t502 -208t208 -502t-208 -502t-502 -208t-501.5 208t-207.5 502zM178 678q0 -261 184.5 -446t445.5 -185q262 0 446.5 185t184.5 446t-184.5 446t-446.5 185q-261 0 -445.5 -185t-184.5 -446zM426 672q0 105 51.5 198.5t148 145 t194.5 51.5q87 0 159 -26q37 -13 49 -13q19 0 27.5 7.5t13.5 30.5h37l14 -247h-34q-29 101 -96 152t-155 51q-110 0 -187 -87t-77 -253q0 -173 81 -262.5t205 -89.5q65 0 122.5 31.5t126.5 111.5l31 -22q-112 -180 -317 -180q-105 0 -197.5 50t-144.5 148t-52 203z" />
<glyph unicode="&#x201e;" horiz-adv-x="1618" d="M99 678q0 294 207.5 502t501.5 208t502 -208t208 -502t-208 -502t-502 -208t-501.5 208t-207.5 502zM178 678q0 -261 184.5 -446t446.5 -185q261 0 445.5 185t184.5 446t-184.5 446t-445.5 185q-262 0 -446.5 -185t-184.5 -446zM465 665q0 195 98.5 302.5t263.5 107.5 q124 0 201 -57t108 -168l-99 -21q-28 80 -84 120t-133 40q-106 0 -178.5 -85t-72.5 -244q0 -145 70.5 -223.5t171.5 -78.5q84 0 149 51t88 141l88 -25q-32 -124 -118 -191.5t-206 -67.5q-152 0 -249.5 105t-97.5 294z" />
<glyph unicode="&#x2022;" horiz-adv-x="1460" d="M54 529q0 165 92 266t215 101q86 0 152 -44.5t141 -184.5q68 156 149 216.5t221 60.5q161 0 272 -116t111 -301q0 -183 -108 -301.5t-241 -118.5q-99 0 -184 73q-56 48 -153 213q-64 -124 -140 -178.5t-184 -54.5q-144 0 -243.5 103t-99.5 266zM109 530 q0 -133 70.5 -212.5t159.5 -79.5q95 0 168 85q47 56 118 267q-49 110 -112 162t-155 52q-106 0 -177.5 -74.5t-71.5 -199.5zM750 464q75 -156 148 -209.5t164 -53.5q123 0 205.5 88.5t82.5 237.5q0 147 -87 243t-195 96q-69 0 -120.5 -35t-93.5 -112q-24 -45 -104 -255z" />
<glyph unicode="&#x2026;" horiz-adv-x="1460" d="M56 0v94h829q199 0 309.5 102.5t110.5 255.5q0 121 -75.5 217t-148.5 113q-148 33 -193 33h-832v101h805q154 0 248 -34q122 -45 207.5 -159.5t85.5 -264.5q0 -125 -67.5 -235.5t-175.5 -166.5t-298 -56h-805z" />
<glyph unicode="&#x202f;" horiz-adv-x="397" />
<glyph unicode="&#x2039;" horiz-adv-x="2021" d="M76 469v56q135 78 293 216.5t274 278.5h114q-64 -102 -168 -206h1357v-99h-1460l-145 -121q-31 -25 -127 -95q179 -138 272 -222h1460v-97h-1357q103 -105 168 -208h-114q-118 144 -291.5 291.5t-275.5 205.5z" />
<glyph unicode="&#x203a;" horiz-adv-x="1235" d="M93 1161v114q144 118 291.5 291.5t205.5 275.5h56q78 -135 216.5 -293t278.5 -274v-114q-102 63 -206 167v-1356h-99v1460l-121 144q-25 31 -95 128q-138 -179 -222 -272v-1460h-97v1356q-105 -102 -208 -167z" />
<glyph unicode="&#x205f;" horiz-adv-x="496" />
<glyph unicode="&#x20ac;" horiz-adv-x="2134" d="M41 469v56q135 78 293 216.5t274 278.5h114q-64 -102 -168 -206h1026q-97 95 -167 206h114q118 -143 291.5 -290.5t275.5 -206.5v-56q-135 -78 -293 -216.5t-274 -278.5h-114q63 102 167 206l-1026 2q103 -105 168 -208h-114q-118 144 -291.5 291.5t-275.5 205.5z M179 499q179 -138 272 -222l1233 1l143 119q31 26 129 97q-180 138 -272 221h-1233l-143 -119q-32 -26 -129 -97z" />
<glyph unicode="&#x2122;" horiz-adv-x="1542" d="M246 354q0 60 20 107q30 69 63 112l236 310q76 98 203 296q100 -160 204 -296l239 -310q85 -112 85 -226q0 -103 -57 -167.5t-133 -64.5q-54 0 -95.5 31.5t-84.5 130.5q-18 41 -32 54q-9 8 -19 8q-17 0 -30 -20q-19 -29 -19 -97q0 -118 79 -222h-271q41 50 56 90 q25 64 25 133q0 65 -20 97q-11 19 -25 19q-13 0 -24 -10q-15 -14 -30 -51q-38 -93 -82.5 -128t-99.5 -35q-76 0 -132 64.5t-56 174.5z" />
<glyph unicode="&#xfb01;" horiz-adv-x="2021" d="M76 178v100h1460l145 121q30 25 127 95q-180 138 -272 221h-1460v98h1356q-103 105 -167 207h114q118 -143 291.5 -290.5t275.5 -206.5v-56q-135 -78 -293 -216.5t-274 -278.5h-114q63 102 167 206h-1356z" />
<glyph unicode="&#xfb02;" horiz-adv-x="1235" d="M93 539v114q102 -63 206 -167v1356h99v-1460l124 -147q24 -30 92 -125q138 180 222 272v1460h98v-1356q104 102 207 167v-114q-144 -118 -291.5 -291.5t-205.5 -275.5h-56q-78 135 -216.5 293t-278.5 274z" />
</font>
</defs>
</svg>
